<!-- Generator: Adobe Illustrator 21.1.0, SVG Export Plug-In  -->
<svg version="1.1"
	 xmlns="http://www.w3.org/2000/svg" xmlns:xlink="http://www.w3.org/1999/xlink" xmlns:a="http://ns.adobe.com/AdobeSVGViewerExtensions/3.0/"
	 x="0px" y="0px" width="34.295px" height="34.365px" viewBox="0 0 34.295 34.365"
	 style="enable-background:new 0 0 34.295 34.365;" xml:space="preserve">
<style type="text/css">
	.st0{fill:#CCCCCC;}
	.st1{fill:#FFFFFF;}
</style>
<defs>
</defs>
<g>
	<path class="st0" d="M21.889,23.875c0.027-0.305,0.07-0.6,0.127-0.885c0.028-0.14,0.06-0.278,0.097-0.411
		c0.027-0.098,0.054-0.197,0.086-0.291c0.075-0.219,0.159-0.432,0.266-0.626c0.003-0.005,0.004-0.011,0.007-0.016
		c0.109-0.195,0.244-0.368,0.39-0.531c0.056-0.063,0.12-0.119,0.182-0.176c0.115-0.106,0.24-0.202,0.377-0.288
		c0.077-0.048,0.154-0.095,0.238-0.137c0.156-0.078,0.332-0.139,0.516-0.193c0.087-0.025,0.166-0.057,0.259-0.076
		c0.288-0.061,0.601-0.1,0.955-0.1c0.473,0,0.872,0.069,1.209,0.195c0.337,0.126,0.612,0.308,0.836,0.533l0,0l0,0l-6.024-6.048
		c-0.241-0.242-0.548-0.429-0.921-0.555l-4.858-4.876l-0.02,2.588l2.341,2.35c-0.111,0.04-0.217,0.085-0.317,0.134
		c-0.084,0.042-0.162,0.089-0.238,0.137c-0.137,0.086-0.262,0.182-0.377,0.288c-0.063,0.058-0.127,0.114-0.183,0.177
		c-0.029,0.032-0.066,0.056-0.093,0.089c-0.111,0.136-0.209,0.282-0.296,0.438c-0.001,0.001-0.001,0.003-0.002,0.004
		c-0.003,0.006-0.005,0.012-0.008,0.018c-0.084,0.153-0.159,0.312-0.222,0.481c-0.017,0.045-0.027,0.097-0.042,0.143
		c-0.032,0.094-0.059,0.192-0.086,0.29c-0.023,0.084-0.054,0.161-0.073,0.248c-0.012,0.052-0.013,0.111-0.024,0.164
		c-0.057,0.286-0.1,0.582-0.127,0.888c-0.004,0.042-0.014,0.08-0.017,0.122c-0.001,0.016-0.001,0.032-0.002,0.048
		c-0.023,0.316-0.035,0.637-0.037,0.961l-0.071,9.356h-3.497l0.098-12.877l-2.599-2.609c0.137-0.013,0.276-0.022,0.408-0.051
		c0.079-0.017,0.151-0.048,0.228-0.071c0.156-0.046,0.309-0.094,0.454-0.161c0.084-0.038,0.161-0.086,0.242-0.131
		c0.128-0.071,0.251-0.146,0.368-0.232c0.077-0.057,0.148-0.118,0.22-0.181c0.107-0.093,0.207-0.191,0.301-0.297
		c0.035-0.039,0.078-0.069,0.111-0.109c0.034-0.042,0.059-0.09,0.091-0.134c0.054-0.073,0.105-0.148,0.153-0.225
		c0.029-0.047,0.065-0.088,0.092-0.136c0.039-0.07,0.068-0.147,0.103-0.22c0.025-0.053,0.052-0.105,0.075-0.16
		c0.011-0.026,0.026-0.05,0.036-0.077c0.056-0.148,0.103-0.302,0.139-0.459c0.002-0.009,0.002-0.019,0.004-0.028
		c0.007-0.032,0.009-0.065,0.015-0.097c0.023-0.121,0.046-0.243,0.056-0.368c0.006-0.079,0.01-0.159,0.01-0.24
		c0.001-0.117-0.004-0.232-0.015-0.346c-0.004-0.043-0.024-0.081-0.029-0.123c-0.031-0.236-0.084-0.463-0.16-0.681
		c-0.012-0.034-0.012-0.073-0.025-0.107c-0.004-0.01-0.012-0.019-0.016-0.029c-0.1-0.25-0.231-0.482-0.385-0.698
		c-0.012-0.017-0.018-0.039-0.031-0.056c-0.099-0.133-0.206-0.259-0.323-0.376L5.834,0.992c0.131,0.132,0.246,0.28,0.354,0.432
		C6.341,1.64,6.473,1.873,6.573,2.122C6.59,2.166,6.598,2.213,6.614,2.257c0.077,0.218,0.13,0.447,0.161,0.683
		c0.02,0.155,0.045,0.308,0.044,0.469C6.817,3.618,6.79,3.821,6.752,4.019C6.747,4.051,6.745,4.083,6.738,4.114
		C6.695,4.31,6.633,4.497,6.559,4.679C6.537,4.733,6.51,4.784,6.485,4.837C6.427,4.96,6.361,5.079,6.289,5.194
		C6.241,5.271,6.19,5.346,6.137,5.418C6.074,5.503,6.005,5.583,5.934,5.662C5.84,5.767,5.74,5.866,5.634,5.959
		C5.562,6.021,5.49,6.083,5.413,6.14C5.297,6.226,5.172,6.3,5.046,6.371c-0.08,0.045-0.158,0.093-0.242,0.131
		C4.659,6.569,4.505,6.617,4.35,6.663C4.273,6.686,4.2,6.716,4.122,6.734C3.883,6.786,3.637,6.818,3.383,6.818
		c-0.937,0-1.785-0.381-2.397-0.995l5.313,5.333L6.168,28.318H0.283l6.024,6.047h5.885l0.028-3.669l3.655,3.669h5.885l0.071-9.356
		c0.002-0.323,0.014-0.645,0.037-0.96C21.873,23.99,21.884,23.934,21.889,23.875z"/>
	<path class="st0" d="M34.208,21.592c-0.005-0.052-0.016-0.097-0.021-0.148c-0.042-0.418-0.101-0.82-0.175-1.208
		c-0.018-0.093-0.033-0.188-0.053-0.28c-0.092-0.426-0.208-0.831-0.35-1.213c-0.011-0.029-0.015-0.063-0.027-0.092
		c-0.047-0.121-0.106-0.232-0.158-0.348c-0.046-0.103-0.089-0.209-0.14-0.308c-0.085-0.165-0.182-0.318-0.28-0.471
		c-0.05-0.078-0.094-0.162-0.148-0.237c-0.008-0.011-0.014-0.025-0.023-0.036c-0.152-0.209-0.318-0.405-0.501-0.588l-6.024-6.047
		c0.192,0.193,0.365,0.403,0.523,0.624c0.054,0.075,0.098,0.159,0.148,0.237c0.098,0.153,0.196,0.307,0.28,0.471
		c0.051,0.099,0.094,0.205,0.14,0.308c0.065,0.144,0.128,0.288,0.184,0.44c0.142,0.382,0.257,0.787,0.35,1.213
		c0.02,0.091,0.035,0.187,0.053,0.28c0.074,0.388,0.133,0.79,0.175,1.208c0.007,0.071,0.017,0.139,0.024,0.21
		c0.065,0.741,0.09,1.521,0.084,2.335l-0.079,10.377h-5.873l6.024,6.047h5.873l0.079-10.377c0.006-0.813-0.019-1.593-0.084-2.334
		C34.208,21.635,34.21,21.612,34.208,21.592z"/>
	<g>
		<path class="st1" d="M3.435,0c1.891,0,3.397,1.53,3.383,3.409C6.804,5.288,5.274,6.818,3.383,6.818
			c-1.879,0-3.397-1.53-3.383-3.409S1.557,0,3.435,0z"/>
	</g>
	<g>
		<polygon class="st1" points="6.312,9.394 6.168,28.318 0.283,28.318 0.427,9.394 		"/>
	</g>
	<g>
		<path class="st1" d="M21.284,8.933c5.96,0,7.025,3.907,6.986,9.008L28.19,28.318h-5.873l0.07-9.195
			c0.017-2.202-0.011-5.027-3.022-5.027c-3.061,0-3.539,2.389-3.558,4.865l-0.071,9.357H9.851L9.995,9.394h5.636l-0.02,2.588h0.087
			C16.494,10.501,18.422,8.933,21.284,8.933z"/>
	</g>
</g>
</svg>