<!-- Generator: Adobe Illustrator 21.1.0, SVG Export Plug-In  -->
<svg version="1.1"
	 xmlns="http://www.w3.org/2000/svg" xmlns:xlink="http://www.w3.org/1999/xlink" xmlns:a="http://ns.adobe.com/AdobeSVGViewerExtensions/3.0/"
	 x="0px" y="0px" width="37.016px" height="37.025px" viewBox="0 0 37.016 37.025"
	 style="enable-background:new 0 0 37.016 37.025;" xml:space="preserve">
<style type="text/css">
	.st0{fill:#CCCCCC;}
	.st1{fill:#FFFFFF;}
</style>
<defs>
</defs>
<g>
	<path class="st0" d="M14.084,10.583c-0.235,0.069-0.466,0.143-0.686,0.243c-0.126,0.057-0.242,0.127-0.362,0.194
		c-0.194,0.108-0.381,0.221-0.558,0.351c-0.115,0.085-0.222,0.174-0.33,0.268c-0.163,0.142-0.315,0.292-0.459,0.453
		c-0.055,0.061-0.123,0.109-0.175,0.173c-0.046,0.056-0.079,0.123-0.123,0.181c-0.082,0.11-0.158,0.223-0.231,0.339
		c-0.049,0.077-0.109,0.146-0.154,0.226c-0.053,0.094-0.091,0.197-0.138,0.295c-0.04,0.082-0.08,0.163-0.116,0.247
		c-0.02,0.049-0.048,0.093-0.067,0.143c-0.085,0.223-0.154,0.452-0.208,0.688c-0.001,0.005-0.001,0.011-0.002,0.016
		c-0.005,0.023-0.006,0.048-0.011,0.071c-0.045,0.215-0.082,0.432-0.099,0.655c-0.008,0.104-0.013,0.208-0.015,0.314
		c-0.003,0.192,0.004,0.381,0.022,0.568c0.011,0.118,0.038,0.231,0.057,0.346c0.012,0.073,0.021,0.147,0.036,0.219
		c0.057,0.275,0.129,0.545,0.229,0.803c0.008,0.02,0.019,0.038,0.027,0.059c0.019,0.048,0.044,0.091,0.064,0.138
		c0.103,0.235,0.224,0.46,0.359,0.675c0.039,0.061,0.075,0.122,0.116,0.181c0.029,0.042,0.053,0.089,0.083,0.13
		c0.149,0.203,0.314,0.393,0.491,0.572c0,0,0.001,0.001,0.002,0.002l4.253,4.27c-0.219,0.018-0.438,0.038-0.662,0.038
		c-1.367,0-2.65-0.345-3.767-0.952c-0.67-0.365-1.281-0.823-1.815-1.359l0.001,0.001c0,0-0.001-0.001-0.001-0.001l6.024,6.047
		c1.423,1.429,3.394,2.311,5.582,2.311c0.295,0,0.586-0.019,0.874-0.05c0.094-0.01,0.185-0.029,0.278-0.042
		c0.192-0.028,0.383-0.058,0.57-0.099c0.107-0.024,0.211-0.053,0.317-0.081c0.169-0.044,0.336-0.092,0.5-0.147
		c0.108-0.036,0.214-0.076,0.319-0.116c0.157-0.06,0.311-0.125,0.464-0.194c0.103-0.047,0.205-0.095,0.306-0.147
		c0.151-0.077,0.297-0.16,0.442-0.246c0.093-0.055,0.187-0.109,0.278-0.168c0.152-0.098,0.298-0.205,0.442-0.313
		c0.076-0.057,0.154-0.11,0.228-0.169c0.183-0.147,0.358-0.304,0.527-0.466c0.029-0.028,0.06-0.052,0.089-0.08
		c0.195-0.193,0.378-0.396,0.553-0.607c0.008-0.01,0.018-0.019,0.027-0.03c0.015-0.019,0.026-0.041,0.041-0.06
		c0.265-0.331,0.505-0.681,0.716-1.051c0.009-0.015,0.02-0.027,0.029-0.042c0.003-0.006,0.005-0.013,0.009-0.018
		c0.167-0.299,0.309-0.613,0.437-0.935c0.015-0.037,0.036-0.071,0.051-0.108c0.017-0.045,0.026-0.094,0.042-0.139
		c0.094-0.261,0.175-0.527,0.242-0.8c0.01-0.043,0.028-0.083,0.038-0.126c0.003-0.013,0.003-0.027,0.006-0.04
		c0.073-0.329,0.122-0.666,0.152-1.008c0.003-0.033,0.012-0.063,0.015-0.096c0.014-0.184,0.022-0.369,0.023-0.556
		c0.002-0.272-0.009-0.541-0.034-0.806c0-0.002,0-0.003-0.001-0.004c-0.031-0.333-0.089-0.657-0.16-0.976
		c-0.02-0.09-0.044-0.179-0.067-0.268c-0.064-0.246-0.139-0.487-0.225-0.723c-0.018-0.051-0.029-0.105-0.048-0.155
		c-0.009-0.024-0.023-0.045-0.032-0.069c-0.117-0.291-0.248-0.574-0.397-0.847c-0.028-0.052-0.061-0.1-0.09-0.15
		c-0.128-0.223-0.266-0.438-0.415-0.646c-0.027-0.037-0.047-0.079-0.074-0.115c-0.026-0.035-0.058-0.064-0.085-0.098
		c-0.208-0.272-0.427-0.535-0.668-0.777l-0.001-0.002l-6.024-6.047c0.242,0.243,0.461,0.507,0.67,0.779
		c0.054,0.07,0.106,0.14,0.158,0.212c0.149,0.208,0.287,0.424,0.415,0.647c0.029,0.051,0.062,0.099,0.09,0.15
		c0.149,0.273,0.28,0.556,0.397,0.847c0.029,0.073,0.053,0.149,0.08,0.224c0.086,0.236,0.161,0.477,0.225,0.723
		c0.023,0.089,0.047,0.177,0.067,0.267c0.071,0.319,0.129,0.644,0.16,0.977c0.025,0.266,0.037,0.536,0.035,0.81
		c-0.002,0.209-0.019,0.414-0.036,0.619l-4.26-4.276c-0.91-0.914-2.168-1.482-3.566-1.494c-0.016,0-0.031,0-0.046,0
		c-0.38,0-0.749,0.048-1.107,0.127C14.307,10.505,14.199,10.55,14.084,10.583z M17.414,18.494c0.093-0.124,0.196-0.239,0.299-0.354
		c0.144-0.16,0.296-0.311,0.458-0.452c0.107-0.093,0.216-0.184,0.331-0.268c0.177-0.13,0.365-0.244,0.558-0.351
		c0.12-0.066,0.237-0.137,0.362-0.194c0.219-0.1,0.451-0.174,0.686-0.243c0.114-0.034,0.223-0.079,0.341-0.105
		c0.358-0.079,0.727-0.127,1.107-0.127c0.015,0,0.031,0,0.046,0c0.605,0.005,1.176,0.132,1.712,0.329
		c-0.024,0.145-0.034,0.293-0.066,0.435c-0.012,0.056-0.03,0.111-0.044,0.167c-0.067,0.272-0.148,0.539-0.242,0.8
		c-0.03,0.083-0.06,0.165-0.092,0.247c-0.128,0.321-0.27,0.636-0.437,0.935c-0.011,0.02-0.025,0.039-0.036,0.059
		c-0.211,0.371-0.452,0.722-0.717,1.054c-0.023,0.029-0.043,0.06-0.067,0.088c-0.175,0.212-0.359,0.416-0.554,0.608
		c-0.027,0.026-0.057,0.049-0.083,0.075c-0.171,0.164-0.347,0.322-0.532,0.471c-0.073,0.059-0.151,0.111-0.225,0.167
		c-0.145,0.109-0.292,0.216-0.444,0.315c-0.09,0.059-0.184,0.112-0.276,0.167c-0.145,0.086-0.293,0.17-0.444,0.247
		c-0.1,0.051-0.202,0.099-0.305,0.146c-0.152,0.07-0.307,0.135-0.465,0.195c-0.105,0.041-0.211,0.08-0.319,0.116
		c-0.164,0.055-0.332,0.102-0.5,0.147c-0.105,0.028-0.21,0.058-0.317,0.081c-0.148,0.032-0.299,0.054-0.45,0.078
		c-0.084-0.229-0.16-0.463-0.21-0.707c-0.015-0.072-0.024-0.146-0.036-0.219c-0.049-0.298-0.083-0.601-0.078-0.914
		c0.005-0.333,0.048-0.657,0.114-0.971c0.005-0.022,0.005-0.046,0.01-0.068c0.066-0.294,0.163-0.575,0.277-0.847
		c0.035-0.084,0.076-0.165,0.116-0.247c0.087-0.18,0.185-0.353,0.292-0.521C17.257,18.717,17.332,18.603,17.414,18.494z"/>
	<path class="st0" d="M8.508,34.405c1.011,1.014,2.342,1.739,3.983,2.163c1.237,0.321,4.921,0.457,8.61,0.457
		c3.603,0,7.211-0.13,8.547-0.345c0.507-0.081,0.982-0.201,1.438-0.344c0.143-0.045,0.276-0.101,0.413-0.152
		c0.306-0.112,0.603-0.236,0.884-0.377c0.143-0.072,0.283-0.149,0.419-0.229c0.263-0.154,0.513-0.324,0.752-0.505
		c0.115-0.088,0.234-0.171,0.344-0.265c0.286-0.246,0.552-0.515,0.799-0.805c0.034-0.041,0.078-0.071,0.111-0.112
		c0.006-0.007,0.009-0.015,0.015-0.022c0.267-0.33,0.507-0.688,0.725-1.072c0.01-0.017,0.023-0.031,0.033-0.049
		c0.064-0.114,0.11-0.246,0.169-0.365c0.125-0.25,0.25-0.499,0.356-0.768c0.014-0.036,0.034-0.067,0.048-0.103
		c0.125-0.328,0.235-0.67,0.332-1.027c0.017-0.065,0.034-0.135,0.05-0.211c0.023-0.106,0.044-0.227,0.065-0.352
		c0.004-0.021,0.007-0.038,0.011-0.06c0.034-0.207,0.064-0.443,0.093-0.693c0.007-0.063,0.014-0.128,0.021-0.194
		c0.025-0.238,0.049-0.489,0.07-0.757c0.002-0.03,0.005-0.057,0.007-0.087c0.001-0.009,0.001-0.017,0.002-0.025
		c0.023-0.301,0.044-0.621,0.062-0.951c0.006-0.104,0.011-0.213,0.016-0.319c0.013-0.246,0.025-0.496,0.035-0.755
		c0.005-0.133,0.01-0.267,0.015-0.402c0.009-0.251,0.017-0.505,0.025-0.764c0.004-0.134,0.008-0.266,0.011-0.402
		c0.008-0.31,0.014-0.624,0.02-0.94c0.001-0.081,0.003-0.16,0.005-0.241c0.006-0.4,0.01-0.803,0.013-1.206
		c0.001-0.109,0.001-0.218,0.001-0.327c0.002-0.297,0.003-0.592,0.003-0.887c0-0.14,0-0.277-0.001-0.416
		c-0.001-0.271-0.002-0.538-0.004-0.804c-0.001-0.129-0.002-0.258-0.003-0.386c-0.003-0.302-0.007-0.596-0.011-0.886
		c-0.001-0.08-0.002-0.162-0.003-0.24c-0.006-0.367-0.013-0.721-0.021-1.062c-0.002-0.068-0.004-0.129-0.005-0.195
		c-0.007-0.267-0.014-0.525-0.022-0.77c-0.003-0.096-0.006-0.187-0.01-0.279c-0.007-0.204-0.014-0.398-0.022-0.582
		c-0.004-0.087-0.007-0.173-0.011-0.255c-0.009-0.188-0.018-0.359-0.027-0.519c-0.003-0.053-0.006-0.112-0.009-0.162
		c-0.012-0.189-0.024-0.359-0.037-0.497c-0.001-0.012-0.002-0.023-0.003-0.035c-0.044-0.462-0.125-0.908-0.229-1.344
		c-0.034-0.14-0.084-0.272-0.124-0.41c-0.065-0.22-0.118-0.446-0.2-0.658c-0.029-0.075-0.07-0.144-0.101-0.219
		c-0.049-0.118-0.106-0.232-0.161-0.347c-0.137-0.287-0.292-0.565-0.465-0.835c-0.065-0.101-0.125-0.205-0.194-0.304
		c-0.035-0.049-0.06-0.102-0.096-0.15c-0.228-0.307-0.481-0.601-0.761-0.883L28.47,2.627c0.325,0.326,0.604,0.673,0.858,1.033
		c0.07,0.099,0.13,0.202,0.194,0.303c0.173,0.27,0.328,0.549,0.465,0.836c0.055,0.115,0.111,0.229,0.161,0.347
		c0.119,0.283,0.213,0.578,0.3,0.875c0.04,0.138,0.091,0.271,0.125,0.412c0.105,0.436,0.185,0.882,0.229,1.343
		c0.013,0.144,0.027,0.324,0.039,0.527c0.004,0.057,0.007,0.126,0.011,0.187c0.009,0.151,0.017,0.312,0.025,0.488
		c0,0.006,0.001,0.012,0.001,0.018L26.498,4.6c-0.779-0.782-1.834-1.299-3.125-1.501c-1.335-0.203-4.549-0.292-7.747-0.292
		c-3.085,0-6.155,0.084-7.507,0.23C7.745,3.079,7.393,3.154,7.054,3.248C6.946,3.278,6.847,3.32,6.742,3.355
		C6.519,3.43,6.301,3.512,6.096,3.61C5.984,3.663,5.878,3.724,5.771,3.784C5.588,3.887,5.413,3.999,5.247,4.122
		C5.149,4.194,5.053,4.267,4.961,4.346c-0.162,0.139-0.311,0.291-0.453,0.45C4.455,4.854,4.39,4.901,4.34,4.962
		c-0.022,0.027-0.038,0.06-0.059,0.087c-0.089,0.113-0.165,0.238-0.244,0.36c-0.062,0.095-0.134,0.18-0.19,0.28
		c-0.019,0.034-0.032,0.074-0.05,0.109C3.744,5.897,3.7,6.003,3.653,6.108C3.604,6.215,3.547,6.314,3.504,6.426
		C3.483,6.482,3.472,6.544,3.452,6.6C3.41,6.723,3.374,6.85,3.339,6.978C3.312,7.075,3.276,7.165,3.253,7.265
		c-0.032,0.142-0.06,0.288-0.084,0.437C3.142,7.874,3.117,8.078,3.093,8.304C3.085,8.382,3.078,8.475,3.07,8.557
		C3.057,8.7,3.043,8.835,3.031,8.993C3.03,9.013,3.028,9.038,3.027,9.059C3.021,9.135,3.016,9.22,3.01,9.299
		C2.997,9.493,2.984,9.691,2.973,9.902c-0.006,0.104-0.011,0.212-0.017,0.32c-0.01,0.203-0.02,0.411-0.029,0.626
		c-0.005,0.119-0.01,0.237-0.015,0.359c-0.009,0.23-0.017,0.466-0.024,0.705c-0.003,0.11-0.007,0.217-0.01,0.33
		c-0.01,0.35-0.018,0.707-0.025,1.071c-0.001,0.064-0.002,0.13-0.003,0.195c-0.006,0.304-0.01,0.611-0.014,0.921
		c-0.002,0.137-0.003,0.273-0.004,0.41c-0.002,0.242-0.004,0.482-0.005,0.724c-0.001,0.149-0.001,0.297-0.002,0.446
		c-0.001,0.246-0.001,0.489,0,0.732c0,0.13,0,0.26,0.001,0.389c0.001,0.319,0.004,0.632,0.007,0.942
		c0.001,0.049,0.001,0.101,0.001,0.15c0.004,0.359,0.01,0.707,0.016,1.047c0.002,0.093,0.004,0.181,0.006,0.273
		c0.005,0.245,0.011,0.483,0.018,0.714c0.003,0.108,0.006,0.212,0.01,0.317c0.007,0.203,0.014,0.398,0.021,0.587
		c0.004,0.099,0.008,0.197,0.012,0.292c0.009,0.197,0.019,0.381,0.029,0.557c0.004,0.065,0.007,0.136,0.011,0.199
		C2.969,22.428,2.984,22.632,3,22.81c0,0.005,0.001,0.008,0.001,0.013c0.019,0.204,0.039,0.38,0.06,0.518
		c0.066,0.427,0.178,0.818,0.311,1.191c0.017,0.047,0.021,0.104,0.039,0.149c0.015,0.038,0.042,0.067,0.057,0.105
		c0.154,0.374,0.338,0.723,0.565,1.036c0.01,0.014,0.015,0.032,0.025,0.046c0.134,0.181,0.28,0.351,0.439,0.511l4.417,4.434
		c-1.093-0.072-1.964-0.169-2.45-0.295c-0.41-0.106-0.801-0.231-1.172-0.374c-1.114-0.43-2.053-1.028-2.81-1.789l0.001,0.001
		l-0.001,0L8.508,34.405z M30.902,9.582c0.003,0.075,0.006,0.145,0.008,0.223c0.004,0.103,0.007,0.206,0.011,0.314
		c0.007,0.225,0.014,0.463,0.02,0.707c0.002,0.087,0.005,0.168,0.007,0.257c0.005,0.221,0.009,0.457,0.014,0.689l-2.734-2.745
		c0.466,0.034,0.871,0.073,1.17,0.119C29.946,9.232,30.442,9.386,30.902,9.582z M24.646,8.882c-0.032,0.017-0.056,0.045-0.089,0.06
		c-0.029,0.013-0.059,0.02-0.089,0.031c-0.209,0.08-0.432,0.134-0.669,0.134c-0.32-0.004-0.604-0.107-0.864-0.249
		C23.52,8.863,24.09,8.872,24.646,8.882z M21.65,8.853c0.382,0,0.764,0.002,1.143,0.004l5.73,5.751
		c0.331,0.333,0.79,0.54,1.301,0.547c0.237,0,0.46-0.054,0.669-0.134c0.03-0.011,0.06-0.018,0.089-0.031
		c0.146-0.065,0.285-0.142,0.409-0.24c0,0.039,0,0.077,0,0.116c0,0.281-0.001,0.564-0.002,0.847
		c-0.001,0.126-0.001,0.251-0.002,0.377c-0.003,0.399-0.007,0.798-0.013,1.194c-0.001,0.079-0.003,0.156-0.005,0.234
		c-0.005,0.322-0.012,0.641-0.02,0.955c-0.003,0.13-0.007,0.257-0.011,0.386c-0.007,0.263-0.016,0.522-0.025,0.777
		c-0.005,0.131-0.01,0.262-0.015,0.391c-0.011,0.262-0.023,0.516-0.036,0.765c-0.006,0.105-0.01,0.213-0.016,0.315
		c-0.019,0.34-0.041,0.669-0.065,0.977c-0.002,0.03-0.005,0.057-0.007,0.087c-0.021,0.268-0.045,0.519-0.07,0.757
		c-0.007,0.065-0.014,0.131-0.021,0.193c-0.029,0.251-0.059,0.487-0.093,0.694c-0.003,0.021-0.007,0.038-0.011,0.059
		c-0.036,0.213-0.074,0.406-0.116,0.563c-0.108,0.397-0.239,0.77-0.381,1.131c-0.106,0.269-0.23,0.516-0.355,0.765
		c-0.069,0.138-0.129,0.286-0.204,0.417c-0.218,0.383-0.459,0.742-0.725,1.071c-0.039,0.048-0.086,0.087-0.126,0.134
		c-0.247,0.29-0.513,0.56-0.8,0.806c-0.109,0.094-0.228,0.177-0.343,0.264c-0.239,0.182-0.489,0.352-0.752,0.506
		c-0.137,0.08-0.276,0.157-0.419,0.229c-0.281,0.142-0.578,0.265-0.884,0.377c-0.138,0.051-0.271,0.108-0.414,0.152
		c-0.456,0.142-0.931,0.262-1.438,0.344c-1.336,0.215-4.944,0.345-8.547,0.345c-1.992,0-3.969-0.041-5.574-0.129
		c-0.002-0.005-0.006-0.01-0.008-0.015c-0.034-0.083-0.065-0.168-0.096-0.254c-0.133-0.374-0.245-0.765-0.311-1.192
		c-0.022-0.138-0.042-0.314-0.06-0.518c-0.017-0.182-0.032-0.389-0.046-0.616c-0.004-0.063-0.007-0.136-0.011-0.203
		c-0.01-0.173-0.019-0.354-0.028-0.548c-0.004-0.098-0.009-0.201-0.013-0.303c-0.007-0.185-0.014-0.376-0.021-0.575
		c-0.003-0.11-0.007-0.219-0.01-0.333c-0.006-0.215-0.011-0.44-0.016-0.668c-0.002-0.107-0.005-0.211-0.007-0.32
		c-0.006-0.332-0.012-0.673-0.016-1.023c-0.001-0.074-0.001-0.152-0.002-0.227c-0.003-0.289-0.005-0.581-0.006-0.877
		c-0.001-0.126-0.001-0.254-0.001-0.381c-0.001-0.252,0-0.504,0-0.759c0-0.134,0.001-0.269,0.001-0.404
		c0.001-0.261,0.003-0.522,0.006-0.783c0.001-0.12,0.002-0.24,0.003-0.359c0.004-0.318,0.009-0.633,0.014-0.946
		c0.001-0.061,0.002-0.124,0.003-0.184c0.007-0.368,0.016-0.728,0.026-1.081c0.003-0.097,0.006-0.189,0.009-0.285
		c0.008-0.256,0.016-0.508,0.025-0.752c0.004-0.113,0.009-0.223,0.014-0.334c0.009-0.221,0.019-0.435,0.03-0.643
		c0.005-0.106,0.011-0.212,0.016-0.315c0.012-0.217,0.025-0.422,0.039-0.62c0.005-0.073,0.01-0.151,0.015-0.221
		c0.014-0.186,0.029-0.351,0.045-0.516c0.007-0.079,0.014-0.168,0.022-0.242c0.024-0.226,0.049-0.43,0.076-0.603
		c0.041-0.253,0.105-0.489,0.17-0.724c0.035-0.128,0.071-0.255,0.113-0.378c0.059-0.171,0.128-0.333,0.201-0.493
		c0.047-0.104,0.091-0.211,0.144-0.31c0.073-0.137,0.158-0.262,0.241-0.389c0.079-0.122,0.155-0.246,0.243-0.359
		c0.07-0.09,0.151-0.17,0.227-0.254c0.142-0.158,0.291-0.311,0.452-0.449c0.092-0.079,0.189-0.152,0.286-0.224
		c0.166-0.122,0.341-0.235,0.524-0.338c0.106-0.06,0.212-0.12,0.324-0.174c0.205-0.098,0.423-0.18,0.646-0.255
		c0.105-0.035,0.204-0.077,0.313-0.107c0.338-0.094,0.691-0.168,1.064-0.212C15.495,8.937,18.565,8.853,21.65,8.853z"/>
	<g>
		<path class="st1" d="M23.817,5.388c0.008,0,0.015,0,0.023,0c1.02,0,1.847,0.834,1.84,1.866c-0.008,1.02-0.848,1.854-1.88,1.854
			c-1.033-0.012-1.847-0.846-1.84-1.866C21.968,6.216,22.795,5.388,23.817,5.388z"/>
	</g>
	<g>
		<path class="st1" d="M30.802,7.777c0.23,2.439,0.379,13.96-0.338,16.66c-0.96,3.534-3.265,5.624-6.841,6.196
			c-1.336,0.215-4.944,0.345-8.547,0.345c-3.688,0-7.372-0.136-8.609-0.457c-3.514-0.908-5.612-3.198-6.169-6.756
			c-0.415-2.613-0.46-14.756,0.294-17.394c0.984-3.434,3.276-5.45,6.752-6.022C8.918,0.091,11.998,0,15.107,0
			c2.892,0,5.81,0.079,7.566,0.175c2.127,0.112,4.075,0.796,5.656,2.314C29.836,3.932,30.606,5.736,30.802,7.777z M27.822,23.254
			c0.444-2.725,0.445-12.666,0.191-15.217c-0.278-2.725-1.944-4.516-4.64-4.939c-1.335-0.203-4.549-0.292-7.747-0.292
			c-3.085,0-6.155,0.084-7.507,0.23C5.417,3.347,3.6,5.014,3.169,7.702c-0.445,2.849-0.439,13.5-0.107,15.64
			c0.344,2.227,1.601,3.758,3.824,4.38c1.202,0.337,4.803,0.458,8.333,0.458c3.25,0,6.441-0.103,7.641-0.234
			C25.587,27.646,27.391,25.967,27.822,23.254"/>
	</g>
	<g>
		<path class="st1" d="M15.562,7.552c4.38,0,7.911,3.559,7.877,7.951c-0.033,4.38-3.619,7.938-8.011,7.938
			c-4.392,0-7.911-3.558-7.877-7.95C7.585,11.099,11.17,7.54,15.562,7.552z M15.446,20.629c2.816,0,5.135-2.268,5.181-5.089
			c0.047-2.849-2.213-5.163-5.049-5.188c-0.016,0-0.031,0-0.046,0c-2.816,0-5.135,2.268-5.181,5.089
			c-0.047,2.837,2.213,5.163,5.049,5.188C15.416,20.629,15.431,20.629,15.446,20.629"/>
	</g>
</g>
</svg>