<!-- Generator: Adobe Illustrator 21.1.0, SVG Export Plug-In  -->
<svg version="1.1"
	 xmlns="http://www.w3.org/2000/svg" xmlns:xlink="http://www.w3.org/1999/xlink" xmlns:a="http://ns.adobe.com/AdobeSVGViewerExtensions/3.0/"
	 x="0px" y="0px" width="732.5px" height="67px" viewBox="0 0 732.5 67" style="enable-background:new 0 0 732.5 67;"
	 xml:space="preserve">
<style type="text/css">
	.st0{fill:#003EBD;}
	.st1{fill:none;stroke:#003EBD;stroke-miterlimit:10;}
</style>
<defs>
</defs>
<path class="st0" d="M730,66.5H551c-1.105,0-2-0.895-2-2v-62c0-1.105,0.895-2,2-2h179c1.105,0,2,0.895,2,2v62
	C732,65.605,731.105,66.5,730,66.5z"/>
<path class="st1" d="M2.505,66.5h727.49c1.107,0,2.005-0.898,2.005-2.005V2.505c0-1.107-0.898-2.005-2.005-2.005H2.505
	C1.398,0.5,0.5,1.398,0.5,2.505v61.99C0.5,65.602,1.398,66.5,2.505,66.5z"/>
<line class="st1" x1="365.5" y1="12" x2="365.5" y2="55.5"/>
<line class="st1" x1="182.5" y1="12" x2="182.5" y2="55.5"/>
</svg>