<!-- Generator: Adobe Illustrator 21.1.0, SVG Export Plug-In  -->
<svg version="1.1"
	 xmlns="http://www.w3.org/2000/svg" xmlns:xlink="http://www.w3.org/1999/xlink" xmlns:a="http://ns.adobe.com/AdobeSVGViewerExtensions/3.0/"
	 x="0px" y="0px" width="640.524px" height="60.457px" viewBox="0 0 640.524 60.457"
	 style="enable-background:new 0 0 640.524 60.457;" xml:space="preserve">
<style type="text/css">
	.st0{fill:#77EAFF;}
	.st1{fill:none;stroke:#77EAFF;stroke-width:2;stroke-miterlimit:10;}
</style>
<defs>
</defs>
<path class="st0" d="M638.524,59.457H418.874c-1.105,0-2-0.895-2-2V3c0-1.105,0.895-2,2-2h219.651c1.105,0,2,0.895,2,2v54.457
	C640.524,58.561,639.629,59.457,638.524,59.457z"/>
<path class="st1" d="M3,59.457h634.255c1.105,0,2-0.895,2-2V3c0-1.105-0.895-2-2-2H3C1.895,1,1,1.895,1,3v54.457
	C1,58.561,1.895,59.457,3,59.457z"/>
</svg>