<!-- Generator: Adobe Illustrator 21.1.0, SVG Export Plug-In  -->
<svg version="1.1"
	 xmlns="http://www.w3.org/2000/svg" xmlns:xlink="http://www.w3.org/1999/xlink" xmlns:a="http://ns.adobe.com/AdobeSVGViewerExtensions/3.0/"
	 x="0px" y="0px" width="1366px" height="172px" viewBox="0 0 1366 172" style="enable-background:new 0 0 1366 172;"
	 xml:space="preserve">
<style type="text/css">
	.st0{fill:#002A75;}
	.st1{fill:#FFFFFF;}
	.st2{fill:none;}
	.st3{font-family:'MyriadPro-Regular';}
	.st4{font-size:31px;}
</style>
<defs>
</defs>
<rect class="st0" width="1366" height="172"/>
<g>
	<g>
		<path class="st1" d="M292.443,134.16h-8.508v7.535h9.481v2.263h-12.306V123.06h11.819v2.264h-8.995v6.604h8.508V134.16z"/>
		<path class="st1" d="M298.32,128.951l2.241,3.225c0.584,0.837,1.071,1.612,1.591,2.45h0.098c0.52-0.899,1.039-1.675,1.559-2.48
			l2.208-3.194h3.084l-5.358,7.255l5.521,7.751h-3.247l-2.306-3.379c-0.617-0.868-1.137-1.706-1.688-2.604h-0.065
			c-0.52,0.899-1.072,1.705-1.656,2.604l-2.273,3.379h-3.149l5.585-7.659l-5.325-7.348H298.32z"/>
		<path class="st1" d="M312.022,133.85c0-1.922-0.065-3.473-0.13-4.899h2.565l0.13,2.574h0.065c1.169-1.83,3.02-2.915,5.585-2.915
			c3.799,0,6.656,3.07,6.656,7.628c0,5.395-3.441,8.062-7.144,8.062c-2.078,0-3.896-0.868-4.838-2.356h-0.065v8.154h-2.825V133.85z
			 M314.847,137.85c0,0.403,0.065,0.775,0.13,1.116c0.52,1.891,2.241,3.193,4.286,3.193c3.02,0,4.773-2.356,4.773-5.798
			c0-3.008-1.656-5.581-4.676-5.581c-1.948,0-3.767,1.333-4.318,3.379c-0.098,0.341-0.195,0.744-0.195,1.116V137.85z"/>
		<path class="st1" d="M330.497,121.943h2.857v22.014h-2.857V121.943z"/>
		<path class="st1" d="M352.382,136.33c0,5.55-4.026,7.969-7.825,7.969c-4.254,0-7.533-2.977-7.533-7.721
			c0-5.023,3.442-7.969,7.793-7.969C349.33,128.609,352.382,131.741,352.382,136.33z M339.913,136.485
			c0,3.286,1.981,5.767,4.773,5.767c2.728,0,4.773-2.449,4.773-5.829c0-2.542-1.332-5.767-4.708-5.767
			S339.913,133.633,339.913,136.485z"/>
		<path class="st1" d="M359.428,124.641v4.31h4.092v2.078h-4.092v8.092c0,1.86,0.552,2.915,2.144,2.915
			c0.747,0,1.299-0.093,1.656-0.186l0.13,2.046c-0.552,0.217-1.429,0.372-2.533,0.372c-1.331,0-2.403-0.403-3.085-1.147
			c-0.812-0.806-1.104-2.139-1.104-3.906v-8.186H354.2v-2.078h2.436v-3.597L359.428,124.641z"/>
		<path class="st1" d="M366.733,133.633c0-1.768-0.032-3.287-0.13-4.682h2.5l0.097,2.946h0.13c0.715-2.016,2.436-3.287,4.352-3.287
			c0.324,0,0.552,0.031,0.812,0.093v2.574c-0.292-0.062-0.584-0.093-0.974-0.093c-2.013,0-3.442,1.458-3.832,3.503
			c-0.065,0.372-0.13,0.807-0.13,1.271v8h-2.825V133.633z"/>
		<path class="st1" d="M380.663,124.734c0.033,0.93-0.682,1.674-1.818,1.674c-1.006,0-1.721-0.744-1.721-1.674
			c0-0.961,0.747-1.706,1.786-1.706C379.981,123.028,380.663,123.772,380.663,124.734z M377.481,143.958v-15.007h2.857v15.007
			H377.481z"/>
		<path class="st1" d="M385.079,133.85c0-1.922-0.064-3.473-0.13-4.899h2.565l0.13,2.574h0.065c1.169-1.83,3.02-2.915,5.585-2.915
			c3.799,0,6.657,3.07,6.657,7.628c0,5.395-3.442,8.062-7.144,8.062c-2.078,0-3.896-0.868-4.838-2.356h-0.065v8.154h-2.825V133.85z
			 M387.904,137.85c0,0.403,0.065,0.775,0.13,1.116c0.52,1.891,2.24,3.193,4.286,3.193c3.02,0,4.773-2.356,4.773-5.798
			c0-3.008-1.656-5.581-4.676-5.581c-1.948,0-3.767,1.333-4.319,3.379c-0.097,0.341-0.195,0.744-0.195,1.116V137.85z"/>
		<path class="st1" d="M411.542,128.951l3.084,8.434c0.52,1.364,0.942,2.604,1.266,3.845h0.098c0.357-1.24,0.812-2.48,1.331-3.845
			l3.053-8.434h2.987l-6.17,15.007h-2.728l-5.975-15.007H411.542z"/>
		<path class="st1" d="M439.953,136.33c0,5.55-4.026,7.969-7.825,7.969c-4.254,0-7.533-2.977-7.533-7.721
			c0-5.023,3.442-7.969,7.793-7.969C436.901,128.609,439.953,131.741,439.953,136.33z M427.484,136.485
			c0,3.286,1.981,5.767,4.773,5.767c2.728,0,4.773-2.449,4.773-5.829c0-2.542-1.332-5.767-4.708-5.767
			S427.484,133.633,427.484,136.485z"/>
		<path class="st1" d="M456.708,139.865c0,1.55,0.032,2.915,0.13,4.093h-2.533l-0.163-2.45h-0.064
			c-0.747,1.209-2.403,2.791-5.195,2.791c-2.468,0-5.423-1.303-5.423-6.573v-8.775h2.857v8.31c0,2.853,0.909,4.775,3.507,4.775
			c1.916,0,3.247-1.271,3.767-2.48c0.162-0.403,0.26-0.899,0.26-1.396v-9.208h2.857V139.865z"/>
		<path class="st1" d="M461.059,141.167c0.845,0.527,2.338,1.085,3.767,1.085c2.078,0,3.053-0.992,3.053-2.232
			c0-1.302-0.812-2.015-2.923-2.759c-2.825-0.961-4.156-2.45-4.156-4.248c0-2.419,2.046-4.403,5.423-4.403
			c1.591,0,2.987,0.435,3.864,0.931l-0.715,1.984c-0.617-0.372-1.753-0.868-3.214-0.868c-1.688,0-2.63,0.93-2.63,2.046
			c0,1.24,0.942,1.799,2.987,2.543c2.728,0.992,4.124,2.294,4.124,4.526c0,2.636-2.143,4.496-5.877,4.496
			c-1.721,0-3.312-0.403-4.416-1.023L461.059,141.167z"/>
		<path class="st1" d="M481.19,133.85c0-1.922-0.065-3.473-0.13-4.899h2.565l0.13,2.574h0.065c1.169-1.83,3.02-2.915,5.585-2.915
			c3.799,0,6.656,3.07,6.656,7.628c0,5.395-3.441,8.062-7.144,8.062c-2.078,0-3.896-0.868-4.838-2.356h-0.065v8.154h-2.825V133.85z
			 M484.015,137.85c0,0.403,0.065,0.775,0.13,1.116c0.52,1.891,2.241,3.193,4.286,3.193c3.02,0,4.773-2.356,4.773-5.798
			c0-3.008-1.656-5.581-4.676-5.581c-1.948,0-3.767,1.333-4.318,3.379c-0.098,0.341-0.195,0.744-0.195,1.116V137.85z"/>
		<path class="st1" d="M499.665,133.633c0-1.768-0.032-3.287-0.13-4.682h2.5l0.097,2.946h0.13c0.715-2.016,2.436-3.287,4.352-3.287
			c0.324,0,0.552,0.031,0.812,0.093v2.574c-0.292-0.062-0.584-0.093-0.974-0.093c-2.013,0-3.442,1.458-3.832,3.503
			c-0.065,0.372-0.13,0.807-0.13,1.271v8h-2.825V133.633z"/>
		<path class="st1" d="M524.181,136.33c0,5.55-4.026,7.969-7.825,7.969c-4.254,0-7.533-2.977-7.533-7.721
			c0-5.023,3.442-7.969,7.793-7.969C521.129,128.609,524.181,131.741,524.181,136.33z M511.712,136.485
			c0,3.286,1.981,5.767,4.773,5.767c2.728,0,4.773-2.449,4.773-5.829c0-2.542-1.332-5.767-4.708-5.767
			S511.712,133.633,511.712,136.485z"/>
		<path class="st1" d="M527.785,133.85c0-1.922-0.065-3.473-0.13-4.899h2.565l0.13,2.574h0.065c1.169-1.83,3.02-2.915,5.585-2.915
			c3.799,0,6.656,3.07,6.656,7.628c0,5.395-3.441,8.062-7.144,8.062c-2.078,0-3.896-0.868-4.838-2.356h-0.065v8.154h-2.825V133.85z
			 M530.61,137.85c0,0.403,0.065,0.775,0.13,1.116c0.52,1.891,2.241,3.193,4.286,3.193c3.02,0,4.773-2.356,4.773-5.798
			c0-3.008-1.656-5.581-4.676-5.581c-1.948,0-3.767,1.333-4.318,3.379c-0.098,0.341-0.195,0.744-0.195,1.116V137.85z"/>
		<path class="st1" d="M560.482,136.33c0,5.55-4.026,7.969-7.826,7.969c-4.253,0-7.533-2.977-7.533-7.721
			c0-5.023,3.442-7.969,7.793-7.969C557.43,128.609,560.482,131.741,560.482,136.33z M548.014,136.485
			c0,3.286,1.98,5.767,4.773,5.767c2.728,0,4.773-2.449,4.773-5.829c0-2.542-1.331-5.767-4.708-5.767
			S548.014,133.633,548.014,136.485z"/>
		<path class="st1" d="M563.696,141.167c0.845,0.527,2.338,1.085,3.767,1.085c2.078,0,3.053-0.992,3.053-2.232
			c0-1.302-0.812-2.015-2.923-2.759c-2.825-0.961-4.156-2.45-4.156-4.248c0-2.419,2.046-4.403,5.423-4.403
			c1.591,0,2.987,0.435,3.864,0.931l-0.715,1.984c-0.617-0.372-1.753-0.868-3.214-0.868c-1.688,0-2.63,0.93-2.63,2.046
			c0,1.24,0.942,1.799,2.987,2.543c2.728,0.992,4.124,2.294,4.124,4.526c0,2.636-2.143,4.496-5.877,4.496
			c-1.721,0-3.312-0.403-4.416-1.023L563.696,141.167z"/>
		<path class="st1" d="M578.536,136.95c0.065,3.689,2.533,5.209,5.39,5.209c2.046,0,3.279-0.341,4.351-0.775l0.487,1.954
			c-1.006,0.434-2.728,0.93-5.228,0.93c-4.838,0-7.728-3.039-7.728-7.565s2.792-8.093,7.371-8.093c5.131,0,6.494,4.31,6.494,7.069
			c0,0.559-0.064,0.992-0.097,1.271H578.536z M586.913,134.997c0.032-1.736-0.747-4.434-3.961-4.434
			c-2.89,0-4.156,2.542-4.383,4.434H586.913z"/>
		<path class="st1" d="M600.096,121.943h2.857v22.014h-2.857V121.943z"/>
		<path class="st1" d="M609.349,136.95c0.065,3.689,2.533,5.209,5.39,5.209c2.046,0,3.279-0.341,4.351-0.775l0.487,1.954
			c-1.006,0.434-2.728,0.93-5.228,0.93c-4.838,0-7.728-3.039-7.728-7.565s2.792-8.093,7.371-8.093c5.131,0,6.494,4.31,6.494,7.069
			c0,0.559-0.064,0.992-0.097,1.271H609.349z M617.727,134.997c0.032-1.736-0.747-4.434-3.961-4.434
			c-2.89,0-4.156,2.542-4.383,4.434H617.727z"/>
		<path class="st1" d="M632.013,128.951l3.085,8.434c0.52,1.364,0.941,2.604,1.267,3.845h0.097c0.357-1.24,0.812-2.48,1.332-3.845
			l3.052-8.434h2.987l-6.169,15.007h-2.728l-5.975-15.007H632.013z"/>
		<path class="st1" d="M660.425,136.33c0,5.55-4.026,7.969-7.826,7.969c-4.253,0-7.533-2.977-7.533-7.721
			c0-5.023,3.442-7.969,7.793-7.969C657.372,128.609,660.425,131.741,660.425,136.33z M647.956,136.485
			c0,3.286,1.98,5.767,4.773,5.767c2.728,0,4.773-2.449,4.773-5.829c0-2.542-1.331-5.767-4.708-5.767
			S647.956,133.633,647.956,136.485z"/>
		<path class="st1" d="M664.841,128.951l3.441,8.868c0.357,0.992,0.747,2.17,1.007,3.069h0.065c0.292-0.899,0.617-2.046,1.006-3.131
			l3.117-8.806h3.02l-4.286,10.697c-2.045,5.147-3.442,7.783-5.39,9.395c-1.396,1.178-2.792,1.643-3.507,1.767l-0.714-2.294
			c0.714-0.217,1.656-0.651,2.5-1.333c0.779-0.589,1.753-1.643,2.402-3.039c0.13-0.279,0.228-0.496,0.228-0.651
			c0-0.155-0.065-0.372-0.195-0.713l-5.812-13.829H664.841z"/>
		<path class="st1" d="M687.667,143.958l-0.228-1.891h-0.097c-0.877,1.178-2.565,2.232-4.806,2.232c-3.183,0-4.806-2.14-4.806-4.31
			c0-3.627,3.377-5.612,9.448-5.581v-0.31c0-1.24-0.356-3.473-3.571-3.473c-1.461,0-2.987,0.434-4.091,1.116l-0.65-1.798
			c1.299-0.806,3.183-1.333,5.163-1.333c4.806,0,5.975,3.132,5.975,6.14v5.612c0,1.302,0.065,2.574,0.26,3.597H687.667z
			 M687.245,136.299c-3.117-0.062-6.656,0.465-6.656,3.38c0,1.768,1.233,2.604,2.694,2.604c2.046,0,3.345-1.24,3.8-2.512
			c0.097-0.279,0.162-0.589,0.162-0.868V136.299z"/>
		<path class="st1" d="M708.156,128.951c-0.064,1.085-0.129,2.294-0.129,4.124v8.713c0,3.441-0.715,5.55-2.241,6.853
			c-1.526,1.364-3.733,1.798-5.715,1.798c-1.883,0-3.961-0.434-5.228-1.24l0.715-2.077c1.039,0.62,2.662,1.178,4.61,1.178
			c2.923,0,5.065-1.458,5.065-5.24v-1.675h-0.064c-0.877,1.396-2.565,2.512-5.001,2.512c-3.896,0-6.688-3.163-6.688-7.317
			c0-5.085,3.474-7.969,7.078-7.969c2.728,0,4.221,1.364,4.903,2.604h0.064l0.13-2.263H708.156z M705.202,134.873
			c0-0.465-0.032-0.868-0.163-1.24c-0.52-1.582-1.915-2.884-3.993-2.884c-2.728,0-4.676,2.201-4.676,5.674
			c0,2.946,1.559,5.396,4.644,5.396c1.753,0,3.344-1.055,3.961-2.791c0.162-0.465,0.228-0.992,0.228-1.457V134.873z"/>
		<path class="st1" d="M714.357,136.95c0.065,3.689,2.533,5.209,5.391,5.209c2.046,0,3.279-0.341,4.352-0.775l0.486,1.954
			c-1.006,0.434-2.728,0.93-5.228,0.93c-4.838,0-7.728-3.039-7.728-7.565s2.792-8.093,7.37-8.093c5.131,0,6.494,4.31,6.494,7.069
			c0,0.559-0.064,0.992-0.097,1.271H714.357z M722.735,134.997c0.032-1.736-0.747-4.434-3.962-4.434
			c-2.89,0-4.156,2.542-4.383,4.434H722.735z"/>
		<path class="st1" d="M735.918,121.943h2.857v22.014h-2.857V121.943z"/>
		<path class="st1" d="M746.764,124.734c0.032,0.93-0.682,1.674-1.818,1.674c-1.007,0-1.721-0.744-1.721-1.674
			c0-0.961,0.746-1.706,1.785-1.706C746.082,123.028,746.764,123.772,746.764,124.734z M743.581,143.958v-15.007h2.857v15.007
			H743.581z"/>
		<path class="st1" d="M751.179,133.013c0-1.551-0.032-2.822-0.13-4.062h2.533l0.162,2.48h0.064
			c0.779-1.426,2.598-2.822,5.195-2.822c2.176,0,5.553,1.24,5.553,6.388v8.96h-2.857v-8.651c0-2.418-0.941-4.434-3.637-4.434
			c-1.883,0-3.344,1.271-3.831,2.791c-0.13,0.341-0.195,0.806-0.195,1.271v9.023h-2.857V133.013z"/>
		<path class="st1" d="M782.74,128.951c-0.065,1.085-0.131,2.294-0.131,4.124v8.713c0,3.441-0.714,5.55-2.24,6.853
			c-1.525,1.364-3.734,1.798-5.715,1.798c-1.883,0-3.961-0.434-5.228-1.24l0.714-2.077c1.039,0.62,2.663,1.178,4.611,1.178
			c2.922,0,5.065-1.458,5.065-5.24v-1.675h-0.065c-0.876,1.396-2.564,2.512-5,2.512c-3.896,0-6.689-3.163-6.689-7.317
			c0-5.085,3.475-7.969,7.079-7.969c2.728,0,4.222,1.364,4.903,2.604h0.064l0.13-2.263H782.74z M779.785,134.873
			c0-0.465-0.033-0.868-0.162-1.24c-0.52-1.582-1.916-2.884-3.994-2.884c-2.728,0-4.676,2.201-4.676,5.674
			c0,2.946,1.559,5.396,4.643,5.396c1.754,0,3.345-1.055,3.962-2.791c0.162-0.465,0.228-0.992,0.228-1.457V134.873z"/>
		<path class="st1" d="M800.5,139.865c0,1.55,0.033,2.915,0.131,4.093h-2.533l-0.162-2.45h-0.065
			c-0.747,1.209-2.402,2.791-5.195,2.791c-2.468,0-5.423-1.303-5.423-6.573v-8.775h2.857v8.31c0,2.853,0.91,4.775,3.508,4.775
			c1.915,0,3.246-1.271,3.766-2.48c0.163-0.403,0.26-0.899,0.26-1.396v-9.208h2.857V139.865z"/>
		<path class="st1" d="M808.424,124.734c0.032,0.93-0.682,1.674-1.818,1.674c-1.007,0-1.721-0.744-1.721-1.674
			c0-0.961,0.746-1.706,1.785-1.706C807.742,123.028,808.424,123.772,808.424,124.734z M805.241,143.958v-15.007h2.857v15.007
			H805.241z"/>
		<path class="st1" d="M812.449,141.167c0.845,0.527,2.338,1.085,3.767,1.085c2.078,0,3.053-0.992,3.053-2.232
			c0-1.302-0.812-2.015-2.923-2.759c-2.824-0.961-4.156-2.45-4.156-4.248c0-2.419,2.046-4.403,5.423-4.403
			c1.591,0,2.987,0.435,3.864,0.931l-0.715,1.984c-0.617-0.372-1.753-0.868-3.215-0.868c-1.688,0-2.63,0.93-2.63,2.046
			c0,1.24,0.942,1.799,2.987,2.543c2.728,0.992,4.124,2.294,4.124,4.526c0,2.636-2.144,4.496-5.877,4.496
			c-1.722,0-3.312-0.403-4.416-1.023L812.449,141.167z"/>
		<path class="st1" d="M829.14,124.641v4.31h4.091v2.078h-4.091v8.092c0,1.86,0.552,2.915,2.143,2.915
			c0.747,0,1.299-0.093,1.656-0.186l0.13,2.046c-0.552,0.217-1.429,0.372-2.533,0.372c-1.331,0-2.402-0.403-3.084-1.147
			c-0.812-0.806-1.104-2.139-1.104-3.906v-8.186h-2.435v-2.078h2.435v-3.597L829.14,124.641z"/>
		<path class="st1" d="M839.628,124.734c0.032,0.93-0.683,1.674-1.818,1.674c-1.007,0-1.722-0.744-1.722-1.674
			c0-0.961,0.747-1.706,1.786-1.706C838.945,123.028,839.628,123.772,839.628,124.734z M836.445,143.958v-15.007h2.857v15.007
			H836.445z"/>
		<path class="st1" d="M854.759,141.632h-0.065c-0.844,1.488-2.598,2.667-5.13,2.667c-3.669,0-6.657-3.039-6.657-7.597
			c0-5.612,3.8-8.093,7.111-8.093c2.436,0,4.059,1.147,4.838,2.604h0.065l0.098-2.263h2.694c-0.064,1.271-0.097,2.574-0.097,4.124
			v17.022h-2.857V141.632z M854.759,135.028c0-0.372-0.032-0.806-0.13-1.147c-0.422-1.675-1.948-3.101-4.092-3.101
			c-2.955,0-4.74,2.387-4.74,5.767c0,2.977,1.493,5.581,4.643,5.581c1.852,0,3.442-1.085,4.092-2.977
			c0.13-0.372,0.228-0.899,0.228-1.302V135.028z"/>
		<path class="st1" d="M875.475,139.865c0,1.55,0.032,2.915,0.129,4.093h-2.532l-0.162-2.45h-0.065
			c-0.746,1.209-2.402,2.791-5.195,2.791c-2.468,0-5.422-1.303-5.422-6.573v-8.775h2.857v8.31c0,2.853,0.908,4.775,3.506,4.775
			c1.916,0,3.248-1.271,3.768-2.48c0.162-0.403,0.26-0.899,0.26-1.396v-9.208h2.857V139.865z"/>
		<path class="st1" d="M881.807,136.95c0.064,3.689,2.532,5.209,5.39,5.209c2.046,0,3.279-0.341,4.351-0.775l0.487,1.954
			c-1.007,0.434-2.728,0.93-5.228,0.93c-4.838,0-7.729-3.039-7.729-7.565s2.793-8.093,7.371-8.093c5.131,0,6.494,4.31,6.494,7.069
			c0,0.559-0.064,0.992-0.098,1.271H881.807z M890.184,134.997c0.032-1.736-0.747-4.434-3.961-4.434
			c-2.891,0-4.156,2.542-4.384,4.434H890.184z"/>
		<path class="st1" d="M903.658,143.958v-12.929h-2.207v-2.078h2.207v-0.713c0-2.108,0.487-4.03,1.818-5.24
			c1.072-0.992,2.501-1.395,3.832-1.395c1.007,0,1.883,0.217,2.436,0.434l-0.39,2.108c-0.423-0.186-1.007-0.341-1.818-0.341
			c-2.436,0-3.053,2.046-3.053,4.341v0.806h3.8v2.078h-3.8v12.929H903.658z"/>
		<path class="st1" d="M921.55,143.958l-0.228-1.891h-0.097c-0.877,1.178-2.565,2.232-4.806,2.232c-3.183,0-4.806-2.14-4.806-4.31
			c0-3.627,3.377-5.612,9.448-5.581v-0.31c0-1.24-0.356-3.473-3.571-3.473c-1.461,0-2.987,0.434-4.091,1.116l-0.65-1.798
			c1.299-0.806,3.183-1.333,5.163-1.333c4.806,0,5.975,3.132,5.975,6.14v5.612c0,1.302,0.065,2.574,0.26,3.597H921.55z
			 M921.128,136.299c-3.117-0.062-6.656,0.465-6.656,3.38c0,1.768,1.233,2.604,2.694,2.604c2.046,0,3.345-1.24,3.8-2.512
			c0.097-0.279,0.162-0.589,0.162-0.868V136.299z"/>
		<path class="st1" d="M931.681,124.734c0.032,0.93-0.683,1.674-1.818,1.674c-1.007,0-1.722-0.744-1.722-1.674
			c0-0.961,0.747-1.706,1.786-1.706C930.998,123.028,931.681,123.772,931.681,124.734z M928.498,143.958v-15.007h2.857v15.007
			H928.498z"/>
		<path class="st1" d="M939.538,124.641v4.31h4.091v2.078h-4.091v8.092c0,1.86,0.552,2.915,2.143,2.915
			c0.747,0,1.299-0.093,1.656-0.186l0.13,2.046c-0.552,0.217-1.429,0.372-2.533,0.372c-1.331,0-2.402-0.403-3.084-1.147
			c-0.812-0.806-1.104-2.139-1.104-3.906v-8.186h-2.435v-2.078h2.435v-3.597L939.538,124.641z"/>
		<path class="st1" d="M953.728,133.85c0-1.922-0.064-3.473-0.13-4.899h2.565l0.13,2.574h0.064c1.17-1.83,3.021-2.915,5.586-2.915
			c3.799,0,6.656,3.07,6.656,7.628c0,5.395-3.442,8.062-7.144,8.062c-2.078,0-3.896-0.868-4.839-2.356h-0.064v8.154h-2.825V133.85z
			 M956.553,137.85c0,0.403,0.064,0.775,0.13,1.116c0.52,1.891,2.24,3.193,4.286,3.193c3.02,0,4.773-2.356,4.773-5.798
			c0-3.008-1.656-5.581-4.676-5.581c-1.948,0-3.767,1.333-4.318,3.379c-0.098,0.341-0.195,0.744-0.195,1.116V137.85z"/>
		<path class="st1" d="M986.426,136.33c0,5.55-4.026,7.969-7.826,7.969c-4.253,0-7.533-2.977-7.533-7.721
			c0-5.023,3.442-7.969,7.793-7.969C983.373,128.609,986.426,131.741,986.426,136.33z M973.957,136.485
			c0,3.286,1.98,5.767,4.773,5.767c2.727,0,4.772-2.449,4.772-5.829c0-2.542-1.331-5.767-4.708-5.767
			S973.957,133.633,973.957,136.485z"/>
		<path class="st1" d="M1003.18,139.865c0,1.55,0.033,2.915,0.131,4.093h-2.533l-0.162-2.45h-0.065
			c-0.747,1.209-2.402,2.791-5.195,2.791c-2.468,0-5.423-1.303-5.423-6.573v-8.775h2.857v8.31c0,2.853,0.91,4.775,3.508,4.775
			c1.915,0,3.246-1.271,3.766-2.48c0.163-0.403,0.26-0.899,0.26-1.396v-9.208h2.857V139.865z"/>
		<path class="st1" d="M1007.921,133.633c0-1.768-0.032-3.287-0.13-4.682h2.5l0.098,2.946h0.13c0.715-2.016,2.436-3.287,4.352-3.287
			c0.324,0,0.552,0.031,0.812,0.093v2.574c-0.292-0.062-0.584-0.093-0.975-0.093c-2.013,0-3.441,1.458-3.831,3.503
			c-0.065,0.372-0.13,0.807-0.13,1.271v8h-2.825V133.633z"/>
		<path class="st1" d="M1026.527,128.951l3.084,8.434c0.52,1.364,0.942,2.604,1.267,3.845h0.098c0.357-1.24,0.812-2.48,1.331-3.845
			l3.053-8.434h2.987l-6.17,15.007h-2.728l-5.975-15.007H1026.527z"/>
		<path class="st1" d="M1054.938,136.33c0,5.55-4.026,7.969-7.825,7.969c-4.254,0-7.533-2.977-7.533-7.721
			c0-5.023,3.441-7.969,7.793-7.969C1051.886,128.609,1054.938,131.741,1054.938,136.33z M1042.47,136.485
			c0,3.286,1.98,5.767,4.772,5.767c2.729,0,4.773-2.449,4.773-5.829c0-2.542-1.331-5.767-4.708-5.767
			S1042.47,133.633,1042.47,136.485z"/>
		<path class="st1" d="M1071.693,139.865c0,1.55,0.032,2.915,0.129,4.093h-2.532l-0.162-2.45h-0.065
			c-0.746,1.209-2.402,2.791-5.195,2.791c-2.468,0-5.422-1.303-5.422-6.573v-8.775h2.857v8.31c0,2.853,0.908,4.775,3.506,4.775
			c1.916,0,3.248-1.271,3.768-2.48c0.162-0.403,0.26-0.899,0.26-1.396v-9.208h2.857V139.865z"/>
		<path class="st1" d="M1076.044,141.167c0.845,0.527,2.338,1.085,3.767,1.085c2.078,0,3.053-0.992,3.053-2.232
			c0-1.302-0.812-2.015-2.923-2.759c-2.825-0.961-4.156-2.45-4.156-4.248c0-2.419,2.046-4.403,5.423-4.403
			c1.591,0,2.987,0.435,3.864,0.931l-0.715,1.984c-0.616-0.372-1.753-0.868-3.214-0.868c-1.689,0-2.631,0.93-2.631,2.046
			c0,1.24,0.941,1.799,2.987,2.543c2.728,0.992,4.124,2.294,4.124,4.526c0,2.636-2.143,4.496-5.877,4.496
			c-1.721,0-3.312-0.403-4.416-1.023L1076.044,141.167z"/>
	</g>
</g>
</svg>