<!-- Generator: Adobe Illustrator 21.1.0, SVG Export Plug-In  -->
<svg version="1.1"
	 xmlns="http://www.w3.org/2000/svg" xmlns:xlink="http://www.w3.org/1999/xlink" xmlns:a="http://ns.adobe.com/AdobeSVGViewerExtensions/3.0/"
	 x="0px" y="0px" width="647.015px" height="164.509px" viewBox="0 0 647.015 164.509"
	 style="enable-background:new 0 0 647.015 164.509;" xml:space="preserve">
<style type="text/css">
	.st0{clip-path:url(#SVGID_7_);}
	.st1{fill:#FFFFFF;}
	.st2{clip-path:url(#SVGID_8_);}
	.st3{clip-path:url(#SVGID_9_);fill:none;stroke:#1C3C98;stroke-miterlimit:10;}
	.st4{clip-path:url(#SVGID_7_);fill:#FFFFFF;}
	.st5{fill:#F5D433;}
	.st6{fill:#462B17;}
	.st7{fill:#FDFDFB;}
	.st8{clip-path:url(#SVGID_10_);}
	.st9{fill:#F5D433;stroke:#462B17;stroke-width:0.5;stroke-miterlimit:10;}
	.st10{display:none;fill:#FBFAF3;}
	.st11{clip-path:url(#SVGID_11_);fill:#FFFFFF;}
	.st12{clip-path:url(#SVGID_11_);fill:#003EBD;}
	.st13{clip-path:url(#SVGID_11_);}
	.st14{opacity:0.05;clip-path:url(#SVGID_12_);}
	.st15{fill:#DD1608;}
	.st16{clip-path:url(#SVGID_7_);fill:#003EBD;}
	.st17{clip-path:url(#SVGID_14_);}
	.st18{fill:none;}
	.st19{font-family:'Futura-Medium';}
	.st20{font-size:78.477px;}
	.st21{letter-spacing:-1;}
	.st22{font-size:58.5713px;}
	.st23{letter-spacing:1;}
	.st24{clip-path:url(#SVGID_16_);}
	.st25{font-family:'Logobloqo2';}
	.st26{font-size:112.1094px;}
	.st27{clip-path:url(#SVGID_18_);fill:none;stroke:#1C3C98;stroke-miterlimit:10;}
	.st28{clip-path:url(#SVGID_14_);fill:#FFFFFF;}
	.st29{clip-path:url(#SVGID_20_);}
	.st30{clip-path:url(#SVGID_22_);fill:#FFFFFF;}
	.st31{clip-path:url(#SVGID_22_);fill:#003EBD;}
	.st32{clip-path:url(#SVGID_22_);}
	.st33{opacity:0.05;clip-path:url(#SVGID_24_);}
	.st34{clip-path:url(#SVGID_14_);fill:#003EBD;}
</style>
<defs>
</defs>
<g>
	<defs>
		<rect id="SVGID_1_" width="551.138" height="164.509"/>
	</defs>
	<clipPath id="SVGID_7_">
		<use xlink:href="#SVGID_1_"  style="overflow:visible;"/>
	</clipPath>
	<g class="st0">
		<g>
			<path class="st1" d="M66.455,83.528H39.708c0.23,3.066,1.226,5.506,2.989,7.319c1.763,1.788,4.023,2.683,6.783,2.683
				c2.146,0,3.921-0.511,5.326-1.533c1.379-1.021,2.951-2.912,4.713-5.671l7.281,4.062c-1.125,1.916-2.312,3.558-3.563,4.924
				c-1.252,1.367-2.593,2.491-4.023,3.372c-1.431,0.882-2.977,1.526-4.637,1.936c-1.661,0.408-3.462,0.613-5.403,0.613
				c-5.569,0-10.04-1.788-13.412-5.365c-3.372-3.602-5.058-8.378-5.058-14.331c0-5.901,1.634-10.678,4.905-14.331
				c3.295-3.603,7.664-5.403,13.105-5.403c5.492,0,9.835,1.75,13.028,5.25c3.167,3.475,4.751,8.29,4.751,14.446L66.455,83.528z
				 M57.603,76.478c-1.201-4.599-4.1-6.897-8.699-6.897c-1.048,0-2.031,0.159-2.95,0.479c-0.92,0.32-1.757,0.779-2.51,1.38
				s-1.398,1.321-1.935,2.165c-0.536,0.843-0.945,1.801-1.226,2.874H57.603z"/>
			<path class="st1" d="M86.194,79.965L72.783,62.837h10.27l8.315,10.882l8.469-10.882h10.576L96.617,79.965l15.979,20.194h-10.269
				L91.367,86.211L80.14,100.159H69.602L86.194,79.965z"/>
			<path class="st1" d="M127.277,120.467h-8.622V62.837h8.622v4.062c3.397-3.397,7.255-5.097,11.572-5.097
				c5.135,0,9.362,1.891,12.684,5.672c3.372,3.755,5.058,8.494,5.058,14.216c0,5.595-1.673,10.257-5.02,13.986
				c-3.321,3.704-7.51,5.557-12.568,5.557c-4.368,0-8.277-1.75-11.726-5.25V120.467z M147.778,81.727
				c0-3.576-0.971-6.488-2.912-8.736c-1.967-2.273-4.445-3.41-7.434-3.41c-3.167,0-5.735,1.099-7.702,3.295
				c-1.968,2.197-2.951,5.084-2.951,8.66c0,3.5,0.983,6.387,2.951,8.66c1.941,2.223,4.496,3.334,7.664,3.334
				c2.989,0,5.454-1.124,7.396-3.372C146.782,87.91,147.778,85.099,147.778,81.727z"/>
			<path class="st1" d="M174.568,35.438v64.721h-8.622V35.438H174.568z"/>
			<path class="st1" d="M237.318,70.883v29.275h-8.621V70.883h-3.679v-8.047h3.679v-13.68h8.621v13.68h6.706v8.047H237.318z"/>
			<path class="st1" d="M250.122,62.837h8.622v3.333c1.583-1.66,2.988-2.797,4.215-3.41c1.251-0.638,2.733-0.958,4.444-0.958
				c2.273,0,4.649,0.741,7.128,2.223l-3.947,7.894c-1.635-1.175-3.231-1.763-4.79-1.763c-4.7,0-7.05,3.552-7.05,10.653v19.351
				h-8.622V62.837z"/>
			<path class="st1" d="M279.595,47.317c0-1.507,0.549-2.81,1.647-3.908c1.098-1.099,2.414-1.647,3.947-1.647
				c1.558,0,2.886,0.549,3.984,1.647c1.099,1.072,1.648,2.389,1.648,3.946c0,1.559-0.55,2.888-1.648,3.985
				c-1.072,1.099-2.389,1.647-3.946,1.647c-1.559,0-2.888-0.549-3.985-1.647C280.144,50.243,279.595,48.901,279.595,47.317z
				 M289.52,62.837v37.322h-8.622V62.837H289.52z"/>
			<path class="st1" d="M309.298,120.467h-8.622V62.837h8.622v4.062c3.396-3.397,7.254-5.097,11.572-5.097
				c5.134,0,9.362,1.891,12.683,5.672c3.372,3.755,5.059,8.494,5.059,14.216c0,5.595-1.674,10.257-5.02,13.986
				c-3.321,3.704-7.511,5.557-12.569,5.557c-4.368,0-8.276-1.75-11.725-5.25V120.467z M329.798,81.727
				c0-3.576-0.971-6.488-2.912-8.736c-1.968-2.273-4.445-3.41-7.434-3.41c-3.168,0-5.735,1.099-7.702,3.295
				c-1.968,2.197-2.951,5.084-2.951,8.66c0,3.5,0.983,6.387,2.951,8.66c1.94,2.223,4.496,3.334,7.663,3.334
				c2.989,0,5.454-1.124,7.396-3.372C328.802,87.91,329.798,85.099,329.798,81.727z"/>
		</g>
	</g>
	<g class="st0">
		<defs>
			<polygon id="SVGID_5_" points="90.161,91.136 96.714,82.144 116.349,62.929 129.689,56.621 119.308,43.533 100.512,49.184 
				91.117,72.386 84.618,81.582 48.969,90.935 55.972,111.471 78.882,112.639 			"/>
		</defs>
		<clipPath id="SVGID_8_">
			<use xlink:href="#SVGID_5_"  style="overflow:visible;"/>
		</clipPath>
		<g class="st2">
			<g>
				<path class="st1" d="M96.619,82.087c5.085,8.48,10.255,14.572,15.511,18.275c2.61,1.852,4.714,2.871,6.313,3.062
					c-1.662,2.473-4.035,3.869-7.12,4.187c-0.515,0.047-1.044,0.056-1.591,0.027c-5.759-0.293-11.987-5.36-18.683-15.203
					c-0.068-0.112-0.374-0.585-0.915-1.417c-0.548,0.703-0.899,1.143-1.054,1.316c-7.482,9.156-14.104,13.587-19.861,13.293
					l-0.656-0.033c-3.05-0.374-5.65-2.078-7.796-5.11c1.571-0.03,3.751-0.831,6.535-2.407c5.605-3.149,11.369-8.685,17.291-16.604
					c-5.553-10.075-10.94-17.294-16.161-21.653c-2.629-2.18-4.689-3.363-6.178-3.549c1.333-2.489,3.414-3.899,6.245-4.229
					c0.478-0.05,0.971-0.062,1.482-0.035c5.248,0.268,11.202,5.321,17.862,15.162c1.122,1.666,2.204,3.364,3.248,5.099
					c1.569-2.113,2.82-3.693,3.749-4.742c8.032-9.165,14.745-13.609,20.14-13.334l0.055,0.003c2.657,0.172,4.888,1.583,6.69,4.232
					c-1.581,0.175-3.793,1.287-6.638,3.334C109.323,65.851,103.167,72.629,96.619,82.087z"/>
			</g>
		</g>
		<g class="st2">
			<defs>
				<path id="SVGID_6_" d="M101.972,60.329c0,0-4.01,3.578-5.643,5.595l11.247,2.491c0,0,4.904-5.025,8.027-6.984L101.972,60.329z"
					/>
			</defs>
			<clipPath id="SVGID_9_">
				<use xlink:href="#SVGID_6_"  style="overflow:visible;"/>
			</clipPath>
			
				<ellipse transform="matrix(0.343 -0.9393 0.9393 0.343 25.0219 122.9334)" class="st3" cx="100.392" cy="43.579" rx="20.489" ry="36.084"/>
			
				<ellipse transform="matrix(0.343 -0.9393 0.9393 0.343 28.1976 120.7005)" class="st3" cx="100.384" cy="40.193" rx="20.489" ry="36.084"/>
		</g>
	</g>
	<path class="st4" d="M130.569,97.08c0,0-3.838-3.805-2.66-8.913c0,0,0.828-2.387,2.737-2.998c0,0-3.068,7.522,6.783,8.486
		L130.569,97.08z"/>
	<g class="st0">
		<g>
			<g>
				<g>
					<g>
						<g>
							<path class="st5" d="M139.584,78.083l-0.327-0.815l2.482-1.121c0.323-0.146,0.659-0.082,0.749,0.143l0,0
								c0.09,0.225-0.099,0.526-0.422,0.672L139.584,78.083z"/>
							<path class="st6" d="M138.902,77.2l2.759-1.246c0.231-0.104,0.472-0.14,0.681-0.1s0.359,0.15,0.423,0.311
								c0.133,0.331-0.147,0.775-0.622,0.99l-2.759,1.246L138.902,77.2z M142.181,76.608c0.04-0.064,0.053-0.133,0.03-0.192
								c-0.023-0.057-0.077-0.097-0.151-0.111c-0.074-0.014-0.161-0.002-0.243,0.036l-2.204,0.995l0.172,0.428l2.204-0.995
								C142.073,76.731,142.14,76.672,142.181,76.608z"/>
						</g>
						<g>
							<path class="st5" d="M137.276,76.844l-0.327-0.815l2.482-1.121c0.323-0.146,0.659-0.082,0.749,0.143l0,0
								c0.09,0.225-0.099,0.526-0.422,0.672L137.276,76.844z"/>
							<path class="st6" d="M136.594,75.961l2.759-1.246c0.23-0.104,0.472-0.14,0.681-0.1c0.209,0.04,0.359,0.15,0.423,0.311
								c0.064,0.16,0.035,0.352-0.083,0.539c-0.118,0.187-0.309,0.347-0.54,0.452l-2.759,1.246L136.594,75.961z M139.873,75.369
								c0.042-0.067,0.052-0.135,0.029-0.192c-0.023-0.057-0.077-0.097-0.151-0.111c-0.074-0.014-0.161-0.002-0.243,0.036
								l-2.204,0.995l0.172,0.428l2.204-0.995C139.763,75.493,139.831,75.435,139.873,75.369z"/>
						</g>
						<g>
							<path class="st7" d="M139.003,80.621l-4.055-5.015c-0.128-0.158,0.004-0.421,0.273-0.542l0.79-0.357
								c0.152-0.069,0.316-0.075,0.428-0.017l7.263,3.758c0.051,0.026,0.029,0.098-0.041,0.13l-4.549,2.054
								C139.069,80.65,139.023,80.646,139.003,80.621z"/>
							<path class="st6" d="M134.705,75.236c0.094-0.15,0.25-0.281,0.438-0.366l0.79-0.357c0.251-0.114,0.523-0.124,0.708-0.029
								l7.263,3.757c0.096,0.05,0.135,0.148,0.101,0.256c-0.034,0.108-0.136,0.212-0.267,0.271l-4.549,2.054
								c-0.173,0.078-0.359,0.061-0.442-0.041l0,0l-4.055-5.015c-0.101-0.125-0.109-0.297-0.021-0.472
								C134.682,75.275,134.693,75.256,134.705,75.236z M143.262,78.528l-7.026-3.635c-0.039-0.02-0.095-0.018-0.147,0.006
								l-0.79,0.357c-0.061,0.028-0.087,0.067-0.098,0.089c-0.011,0.021-0.024,0.062,0.004,0.098l3.982,4.926L143.262,78.528z
								 M139.259,80.458L139.259,80.458L139.259,80.458L139.259,80.458z"/>
						</g>
					</g>
				</g>
				<g>
					<path class="st1" d="M150.742,78.321c0.66-0.713,0.162-1.868-0.809-1.878c-2.014-0.021-3.564,0.192-5.851,1.177l-2.542,1.095
						l-9.555,5.173c-0.721,0.391-1.345,0.938-1.827,1.602l0,0c-0.277,0.383-0.045,0.923,0.424,0.984l0,0
						c0.813,0.107,1.64,0.029,2.419-0.227l10.323-3.389l2.542-1.095C148.154,80.779,149.374,79.798,150.742,78.321z"/>
					<path class="st6" d="M129.799,85.515c0.028-0.071,0.066-0.14,0.113-0.204c0.505-0.697,1.172-1.282,1.928-1.691l9.579-5.185
						l2.542-1.095c2.396-1.032,4.005-1.222,5.974-1.202c0.572,0.006,1.067,0.336,1.293,0.86c0.226,0.524,0.125,1.111-0.264,1.53l0,0
						c-1.338,1.445-2.582,2.484-4.978,3.516l-2.567,1.104l-10.323,3.389c-0.818,0.268-1.701,0.351-2.554,0.239
						c-0.328-0.043-0.601-0.25-0.732-0.553C129.712,85.992,129.71,85.74,129.799,85.515z M141.674,78.989l-9.543,5.167
						c-0.677,0.366-1.273,0.889-1.725,1.513c-0.096,0.133-0.056,0.263-0.035,0.313c0.022,0.05,0.089,0.169,0.251,0.19
						c0.763,0.1,1.553,0.026,2.285-0.214l10.31-3.385l2.529-1.089c2.297-0.989,3.489-1.985,4.772-3.37
						c0.226-0.244,0.282-0.571,0.151-0.875c-0.131-0.304-0.407-0.488-0.739-0.492c-1.888-0.02-3.43,0.163-5.727,1.152
						L141.674,78.989z"/>
					<g>
						<defs>
							<path id="SVGID_4_" d="M133.417,83.074c0,0-2.509,1.127-2.76,1.861l-2.53-2.779l3.309-1.646L133.417,83.074z"/>
						</defs>
						<clipPath id="SVGID_10_">
							<use xlink:href="#SVGID_4_"  style="overflow:visible;"/>
						</clipPath>
						<g class="st8">
							<g>
								<path class="st5" d="M132.193,88.844l-0.802-3.198c-0.016-0.062-0.041-0.122-0.076-0.176l-1.772-2.78
									c-0.081-0.127-0.029-0.295,0.109-0.355l0.924-0.398c0.391-0.168,0.842-0.112,1.18,0.147l2.506,1.924
									c0.154,0.118,0.236,0.308,0.216,0.501l-0.324,3.143c-0.044,0.423-0.313,0.79-0.704,0.958l-0.924,0.398
									C132.388,89.068,132.23,88.99,132.193,88.844z"/>
								<path class="st6" d="M129.239,82.357c0.054-0.135,0.158-0.243,0.293-0.301l0.924-0.398c0.492-0.212,1.061-0.141,1.486,0.185
									l2.506,1.924c0.24,0.184,0.364,0.473,0.333,0.774l-0.324,3.143c-0.055,0.533-0.395,0.995-0.886,1.207l-0.924,0.398
									c-0.148,0.064-0.316,0.059-0.46-0.012c-0.144-0.071-0.25-0.202-0.289-0.358l-0.802-3.198
									c-0.008-0.031-0.02-0.06-0.037-0.087l-1.772-2.779c-0.087-0.136-0.109-0.302-0.062-0.456
									C129.228,82.384,129.233,82.37,129.239,82.357z M133.793,87.854c0.029-0.073,0.049-0.151,0.057-0.232l0.324-3.143
									c0.009-0.088-0.028-0.174-0.098-0.228l-2.506-1.924c-0.25-0.192-0.584-0.234-0.874-0.109l-0.858,0.369l1.734,2.719
									c0.052,0.082,0.091,0.172,0.114,0.266l0.785,3.128l0.858-0.369C133.544,88.239,133.709,88.065,133.793,87.854z"/>
							</g>
						</g>
					</g>
				</g>
				<g>
					<g>
						<path class="st5" d="M142.873,84.173l0.509,1.181l2.503-1.078c0.326-0.14,0.477-0.519,0.336-0.845l0,0
							c-0.14-0.326-0.519-0.477-0.845-0.336L142.873,84.173z"/>
						<path class="st6" d="M142.473,84.014l2.783-1.199c0.48-0.207,1.039,0.016,1.245,0.496c0.207,0.48-0.016,1.039-0.496,1.245
							l-2.783,1.199L142.473,84.014z M145.945,83.811c0.032-0.08,0.033-0.173-0.004-0.259c-0.074-0.171-0.273-0.25-0.444-0.177
							l-2.223,0.958l0.267,0.621l2.223-0.958C145.85,83.959,145.913,83.891,145.945,83.811z"/>
					</g>
					<g>
						<path class="st5" d="M142.532,87.639l0.509,1.181l2.503-1.078c0.326-0.14,0.477-0.519,0.336-0.845l0,0
							c-0.14-0.326-0.519-0.477-0.845-0.336L142.532,87.639z"/>
						<path class="st6" d="M142.132,87.48l2.783-1.199c0.48-0.207,1.039,0.016,1.245,0.496c0.207,0.48-0.016,1.039-0.496,1.245
							l-2.783,1.199L142.132,87.48z M145.604,87.276c0.032-0.08,0.033-0.173-0.003-0.259c-0.074-0.171-0.273-0.25-0.444-0.177
							l-2.223,0.958l0.267,0.621l2.223-0.958C145.509,87.425,145.572,87.357,145.604,87.276z"/>
					</g>
					<g>
						<path class="st7" d="M140.306,81.969l1.873,9.155c0.059,0.289,0.369,0.451,0.64,0.334l0.797-0.343
							c0.154-0.066,0.26-0.21,0.278-0.376l1.197-10.755c0.008-0.076-0.068-0.133-0.138-0.102l-4.588,1.976
							C140.321,81.876,140.297,81.922,140.306,81.969z"/>
						<path class="st6" d="M140.028,81.8c0.039-0.098,0.115-0.179,0.216-0.223l4.588-1.976c0.132-0.057,0.285-0.039,0.401,0.046
							s0.177,0.227,0.161,0.37l-1.197,10.754c-0.031,0.274-0.207,0.513-0.461,0.622l-0.797,0.343
							c-0.214,0.092-0.455,0.083-0.661-0.025s-0.351-0.3-0.398-0.528l-1.873-9.155C139.991,81.95,140,81.871,140.028,81.8z
							 M140.605,81.908L140.605,81.908L140.605,81.908z M144.749,80.301l-4.11,1.77l1.839,8.991c0.013,0.065,0.058,0.097,0.083,0.11
							c0.025,0.013,0.077,0.031,0.138,0.005l0.797-0.343c0.053-0.023,0.089-0.072,0.096-0.13L144.749,80.301z"/>
					</g>
				</g>
				<g>
					<path class="st9" d="M132.097,87.113l-0.376-1.501c-0.007-0.029,1.457-0.624,1.448-0.533l-0.152,1.475
						c-0.02,0.199-0.147,0.371-0.33,0.45l-0.434,0.187C132.188,87.218,132.114,87.181,132.097,87.113z"/>
				</g>
			</g>
			<path class="st10" d="M144.841,80.834L144.841,80.834c0.059,0.158-0.022,0.333-0.18,0.392l-4.8,1.784
				c-0.158,0.059-0.333-0.022-0.392-0.18l0,0c-0.059-0.158,0.022-0.333,0.18-0.392l4.8-1.784
				C144.606,80.596,144.782,80.676,144.841,80.834z"/>
			<path class="st10" d="M147.341,79.905L147.341,79.905c0.059,0.158-0.022,0.333-0.18,0.392l-1.306,0.485
				c-0.158,0.059-0.333-0.022-0.392-0.18l0,0c-0.059-0.158,0.022-0.333,0.18-0.392l1.306-0.485
				C147.107,79.667,147.283,79.747,147.341,79.905z"/>
		</g>
	</g>
	<g class="st0">
		<g>
			<path class="st1" d="M342.912,95.867c0-1.43,0.523-2.669,1.571-3.717c1.047-1.047,2.299-1.571,3.755-1.571
				s2.708,0.524,3.756,1.571c1.047,1.048,1.571,2.299,1.571,3.756c0,1.481-0.524,2.746-1.571,3.793
				c-1.022,1.021-2.274,1.533-3.756,1.533c-1.507,0-2.771-0.512-3.793-1.533C343.422,98.677,342.912,97.4,342.912,95.867z"/>
			<path class="st1" d="M395.07,64.446v11.457c-1.968-2.4-3.73-4.049-5.288-4.943c-1.533-0.919-3.334-1.379-5.403-1.379
				c-3.244,0-5.939,1.137-8.085,3.41c-2.146,2.273-3.219,5.122-3.219,8.545c0,3.5,1.034,6.374,3.104,8.622
				c2.095,2.248,4.765,3.372,8.009,3.372c2.069,0,3.896-0.447,5.479-1.342c1.533-0.868,3.334-2.554,5.403-5.058v11.381
				c-3.501,1.813-7,2.721-10.5,2.721c-5.773,0-10.602-1.865-14.484-5.595c-3.883-3.756-5.824-8.417-5.824-13.986
				s1.967-10.27,5.901-14.102c3.934-3.832,8.762-5.748,14.484-5.748C388.326,61.801,391.799,62.683,395.07,64.446z"/>
			<path class="st1" d="M401.896,81.229c0-5.39,1.929-9.976,5.786-13.756c3.857-3.781,8.558-5.672,14.102-5.672
				c5.568,0,10.294,1.903,14.178,5.71c3.832,3.807,5.748,8.481,5.748,14.024c0,5.595-1.93,10.283-5.786,14.063
				c-3.884,3.755-8.647,5.633-14.293,5.633c-5.595,0-10.283-1.916-14.063-5.748C403.786,91.704,401.896,86.952,401.896,81.229z
				 M410.709,81.383c0,3.73,0.996,6.681,2.988,8.852c2.044,2.197,4.738,3.296,8.086,3.296c3.372,0,6.066-1.086,8.085-3.258
				c2.018-2.171,3.027-5.07,3.027-8.698c0-3.627-1.01-6.526-3.027-8.698c-2.044-2.196-4.739-3.295-8.085-3.295
				c-3.296,0-5.966,1.099-8.009,3.295C411.731,75.073,410.709,77.909,410.709,81.383z"/>
			<path class="st1" d="M451.065,62.837h8.622v3.448c1.66-1.736,3.077-2.912,4.253-3.525c1.251-0.638,2.822-0.958,4.713-0.958
				c4.216,0,7.549,1.84,10.002,5.519c2.707-3.679,6.373-5.519,10.997-5.519c8.404,0,12.606,5.097,12.606,15.289v23.068h-8.659
				v-20.73c0-3.576-0.436-6.105-1.304-7.587c-0.895-1.507-2.362-2.261-4.406-2.261c-2.376,0-4.106,0.895-5.192,2.682
				c-1.086,1.789-1.628,4.663-1.628,8.622v19.274h-8.66V79.544c0-6.642-1.916-9.963-5.748-9.963c-2.428,0-4.196,0.907-5.308,2.721
				s-1.666,4.675-1.666,8.583v19.274h-8.622V62.837z"/>
		</g>
	</g>
	<g class="st0">
		<defs>
			<rect id="SVGID_2_" x="176.277" y="51.02" width="48.594" height="56.162"/>
		</defs>
		<clipPath id="SVGID_11_">
			<use xlink:href="#SVGID_2_"  style="overflow:visible;"/>
		</clipPath>
		<circle class="st11" cx="199.057" cy="79.397" r="19.595"/>
		<circle class="st12" cx="199.057" cy="79.397" r="13.584"/>
		<g class="st13">
			<defs>
				<circle id="SVGID_3_" cx="199.057" cy="79.397" r="13.571"/>
			</defs>
			<clipPath id="SVGID_12_">
				<use xlink:href="#SVGID_3_"  style="overflow:visible;"/>
			</clipPath>
			<polygon class="st14" points="207.143,70.849 217.39,81.14 201.167,97.132 190.97,87.945 			"/>
		</g>
		<g class="st13">
			<g>
				<path class="st1" d="M206.676,71.139l-9.331,6.638l-6.111,9.685c-0.083,0.132,0.076,0.283,0.203,0.192l9.331-6.638l6.111-9.685
					C206.963,71.199,206.803,71.049,206.676,71.139z"/>
				<path class="st6" d="M190.794,87.555c-0.003-0.108,0.026-0.217,0.088-0.316l6.154-9.754l9.398-6.686
					c0.221-0.157,0.512-0.136,0.709,0.05c0.196,0.186,0.233,0.476,0.089,0.705l-6.154,9.754l-9.398,6.686
					c-0.221,0.157-0.512,0.137-0.709-0.049C190.858,87.839,190.798,87.698,190.794,87.555z M197.654,78.07l-5.324,8.438l8.13-5.784
					l5.324-8.439L197.654,78.07z M206.918,71.479L206.918,71.479L206.918,71.479L206.918,71.479z"/>
			</g>
			<g>
				<path class="st15" d="M206.676,71.139l-9.331,6.638l-6.111,9.685c-0.083,0.132,0.076,0.283,0.203,0.192l9.331-6.638l6.111-9.685
					C206.963,71.199,206.803,71.049,206.676,71.139z"/>
				<path class="st1" d="M190.794,87.555c-0.003-0.108,0.026-0.217,0.088-0.316l6.154-9.754l9.398-6.686
					c0.221-0.157,0.512-0.136,0.709,0.05c0.196,0.186,0.233,0.476,0.089,0.705l-6.154,9.754l-9.398,6.686
					c-0.221,0.157-0.512,0.137-0.709-0.049C190.858,87.839,190.798,87.698,190.794,87.555z M197.654,78.07l2.806,2.654l5.324-8.439
					L197.654,78.07z M206.918,71.479L206.918,71.479L206.918,71.479L206.918,71.479z"/>
			</g>
			<g>
				<line class="st1" x1="197.345" y1="77.778" x2="200.769" y2="81.016"/>
				
					<rect x="198.64" y="77.041" transform="matrix(0.6872 -0.7265 0.7265 0.6872 4.5836 169.4394)" class="st1" width="0.834" height="4.713"/>
			</g>
		</g>
	</g>
	<path class="st16" d="M127.279,97.893l-0.49-16.004l1.314,5.823c0,0-2.144,5.269,2.467,9.367c4.61,4.098,9.548,4.325,12.958,3.621
		c0.032,2.365,5.458-1.6,4.971-0.521c-0.487,1.08-5.11,4.563-5.11,4.563L127.279,97.893z"/>
	<path class="st4" d="M188.592,79.254h-1.766c-0.164,0-0.297-0.133-0.297-0.297l0,0c0-0.164,0.133-0.297,0.297-0.297h1.766
		c0.164,0,0.297,0.133,0.297,0.297l0,0C188.889,79.121,188.756,79.254,188.592,79.254z"/>
	<path class="st4" d="M211.144,79.254h-1.766c-0.164,0-0.297-0.133-0.297-0.297l0,0c0-0.164,0.133-0.297,0.297-0.297h1.766
		c0.164,0,0.297,0.133,0.297,0.297l0,0C211.441,79.121,211.308,79.254,211.144,79.254z"/>
	<path class="st4" d="M199.384,90.177v1.766c0,0.164-0.133,0.297-0.297,0.297l0,0c-0.164,0-0.297-0.133-0.297-0.297v-1.766
		c0-0.164,0.133-0.297,0.297-0.297l0,0C199.251,89.88,199.384,90.013,199.384,90.177z"/>
	<path class="st4" d="M199.384,67.053v1.766c0,0.164-0.133,0.297-0.297,0.297l0,0c-0.164,0-0.297-0.133-0.297-0.297v-1.766
		c0-0.164,0.133-0.297,0.297-0.297l0,0C199.251,66.756,199.384,66.889,199.384,67.053z"/>
</g>
</svg>