<!-- Generator: Adobe Illustrator 21.1.0, SVG Export Plug-In  -->
<svg version="1.1"
	 xmlns="http://www.w3.org/2000/svg" xmlns:xlink="http://www.w3.org/1999/xlink" xmlns:a="http://ns.adobe.com/AdobeSVGViewerExtensions/3.0/"
	 x="0px" y="0px" width="112.379px" height="134.361px" viewBox="0 0 112.379 134.361"
	 style="enable-background:new 0 0 112.379 134.361;" xml:space="preserve">
<style type="text/css">
	.st0{opacity:0.1;}
	.st1{fill:#56494E;}
	.st2{fill:#FFCF18;stroke:#FFDA53;stroke-width:5.9656;stroke-miterlimit:10;}
	.st3{opacity:0.3;fill:#FFFCFF;}
	.st4{opacity:0.6;}
	.st5{fill:#FF8B14;}
	.st6{opacity:0.3;fill:#F07774;}
	.st7{fill:#FFC3A8;}
	.st8{opacity:0.2;fill:#FF7063;}
	.st9{opacity:0.5;fill:#FFFCFF;}
	.st10{opacity:0.5;}
	.st11{fill:#FFFCFF;}
	.st12{opacity:0.3;fill:#FF7063;}
	.st13{opacity:0.6;fill:#9B625C;}
</style>
<defs>
</defs>
<g>
	<g class="st0">
		<path class="st1" d="M104.952,131.878c0,1.366-1.117,2.483-2.483,2.483H15.477c-1.366,0-2.483-1.117-2.483-2.483v-2.485
			c0-1.366,1.117-2.483,2.483-2.483h86.993c1.366,0,2.483,1.117,2.483,2.483V131.878z"/>
	</g>
	<g>
		<g>
			
				<ellipse transform="matrix(0.866 -0.5 0.5 0.866 -7.4126 30.4415)" class="st2" cx="53.098" cy="29.053" rx="26.065" ry="26.066"/>
		</g>
		<path class="st3" d="M31.44,46.667c3.001,3.681,6.879,6.523,11.235,8.282l33.618-41.456c-2.676-3.985-6.321-7.16-10.507-9.299
			L31.44,46.667z"/>
		<g class="st4">
			<path class="st5" d="M57.272,39.165c-1.825,0.823-3.35,1.221-4.575,1.192c-1.225-0.029-2.037-0.389-2.435-1.079
				c-0.319-0.552-0.399-1.11-0.241-1.673c0.158-0.563,0.565-1.034,1.221-1.412c0.276-0.159,0.606-0.286,0.988-0.381
				c0.383-0.094,0.794-0.188,1.235-0.282c0.441-0.093,0.9-0.215,1.377-0.364c0.478-0.149,0.949-0.358,1.415-0.627
				c0.587-0.339,0.976-0.799,1.169-1.382c0.193-0.583,0.13-1.15-0.189-1.703c-0.209-0.362-0.462-0.63-0.758-0.805
				c-0.296-0.174-0.637-0.276-1.023-0.307c-0.386-0.03-0.817,0-1.293,0.091c-0.477,0.091-1.01,0.204-1.601,0.337
				c-1.029,0.249-1.962,0.408-2.797,0.476c-0.835,0.068-1.585,0.024-2.251-0.133c-0.666-0.156-1.256-0.442-1.772-0.858
				c-0.516-0.415-0.983-0.985-1.402-1.71c-0.816-1.415-1.076-2.899-0.776-4.453c0.299-1.553,1.157-2.957,2.573-4.212l-0.747-1.294
				c-0.538-0.932-0.462-1.597,0.228-1.996c0.414-0.239,0.755-0.286,1.023-0.142c0.267,0.144,0.541,0.459,0.82,0.942l0.687,1.191
				c1.537-0.725,2.837-1.064,3.899-1.018c1.062,0.046,1.799,0.427,2.21,1.139c0.321,0.556,0.41,1.089,0.267,1.598
				c-0.143,0.509-0.517,0.938-1.121,1.286c-0.259,0.149-0.542,0.267-0.849,0.352c-0.307,0.086-0.622,0.169-0.942,0.251
				c-0.321,0.082-0.643,0.17-0.968,0.266c-0.325,0.096-0.625,0.223-0.901,0.382c-0.656,0.379-1.074,0.821-1.253,1.326
				c-0.18,0.506-0.14,0.983,0.119,1.43c0.189,0.328,0.421,0.55,0.695,0.667c0.275,0.117,0.594,0.162,0.958,0.135
				c0.364-0.026,0.791-0.095,1.28-0.204c0.489-0.11,1.042-0.228,1.659-0.355c2.053-0.428,3.749-0.441,5.084-0.041
				c1.335,0.4,2.406,1.298,3.212,2.693c0.457,0.793,0.749,1.618,0.876,2.475c0.127,0.857,0.097,1.702-0.091,2.533
				c-0.187,0.832-0.531,1.621-1.031,2.369c-0.5,0.748-1.152,1.423-1.955,2.024l0.987,1.708c0.548,0.949,0.476,1.623-0.213,2.022
				c-0.398,0.229-0.734,0.274-1.01,0.134c-0.276-0.14-0.559-0.46-0.848-0.96L57.272,39.165z"/>
		</g>
		<path class="st6" d="M68.708,43.938H44.086c-4.504,0-8.888,0.795-13.014,2.287c5.249,6.719,13.391,10.765,22.05,10.765
			c4.876,0,9.697-1.295,13.943-3.747c3.735-2.156,6.85-5.082,9.191-8.556C73.795,44.194,71.271,43.938,68.708,43.938z"/>
	</g>
	<g>
		<circle class="st7" cx="5.915" cy="77.348" r="5.915"/>
		<path class="st8" d="M11.218,79.954L0.12,76.155C0.041,76.54,0,76.939,0,77.348c0,3.267,2.648,5.915,5.915,5.915
			C8.245,83.262,10.254,81.911,11.218,79.954z"/>
		<path class="st7" d="M112.379,95.992c0,3.182-2.604,5.786-5.786,5.786h-4.372c-3.182,0-1.929-2.604-1.929-5.786V81.848
			c0-3.182,0.675-5.786,3.857-5.786h2.443c3.182,0,5.786,2.604,5.786,5.786V95.992z"/>
		<path class="st9" d="M100.292,81.848v2.313h12.086v-2.313c0-0.741-0.146-1.448-0.403-2.101h-11.548
			C100.331,80.399,100.292,81.107,100.292,81.848z"/>
		<path class="st8" d="M100.292,88.216v7.776c0,3.182-1.254,5.786,1.929,5.786h4.372c3.182,0,5.786-2.604,5.786-5.786v-7.776
			H100.292z"/>
		<path class="st7" d="M68.708,47.414H44.086c-20.641,0-37.529,16.888-37.529,37.529v0.979c0,12.31,6.007,23.283,15.234,30.137
			l-1.264,8.681c-0.611,4.199,2.36,7.634,6.603,7.634h1.414c4.243,0,8.215-3.435,8.827-7.634l0.269-1.85
			c2.096,0.367,4.249,0.56,6.446,0.56h24.622c0.366,0,0.731-0.007,1.094-0.017l0.19,1.307c0.612,4.199,4.583,7.634,8.827,7.634
			h1.414c4.243,0,7.214-3.435,6.603-7.634l-0.809-5.555c11.984-6.285,20.209-18.859,20.209-33.263v-0.979
			C106.237,64.302,89.349,47.414,68.708,47.414z"/>
		<g class="st10">
			<path class="st11" d="M19.814,71.787c-0.545,0-1.096-0.152-1.587-0.469c-1.359-0.878-1.748-2.691-0.87-4.05
				c6.371-9.858,17.126-15.744,28.77-15.744h20.542c1.618,0,2.929,1.311,2.929,2.929c0,1.618-1.312,2.929-2.929,2.929H46.126
				c-9.646,0-18.562,4.884-23.849,13.066C21.716,71.315,20.775,71.787,19.814,71.787z"/>
		</g>
		<path class="st7" d="M75.017,51.538c-1.847-1.044-1.681-2.344,0.369-2.89l16.935-4.51c2.05-0.546,3.261,0.679,2.691,2.723
			l-2.813,10.086c-0.57,2.044-2.548,2.862-4.395,1.818L75.017,51.538z"/>
		<path class="st12" d="M106.202,85.31v0.644c0,14.822-18.299,26.949-33.121,26.949H39.971c-14.822,0-33.121-12.127-33.121-26.949
			V85.31H6.558v0.611c0,12.31,6.007,23.283,15.234,30.137l-1.264,8.681c-0.611,4.199,2.36,7.634,6.603,7.634h1.414
			c4.243,0,8.215-3.435,8.827-7.634l0.269-1.85c2.096,0.367,4.249,0.56,6.446,0.56h24.622c0.366,0,0.731-0.007,1.094-0.017
			l0.19,1.307c0.612,4.199,4.583,7.634,8.827,7.634h1.414c4.243,0,7.214-3.435,6.603-7.634l-0.809-5.555
			c11.984-6.285,20.209-18.859,20.209-33.263V85.31H106.202z"/>
		<path class="st8" d="M94.156,44.193L86.15,57.829l1.654,0.935c1.847,1.044,3.825,0.226,4.395-1.818l2.813-10.086
			C95.378,45.55,95.008,44.579,94.156,44.193z"/>
	</g>
	<circle class="st13" cx="92.412" cy="74.186" r="2.834"/>
</g>
</svg>