<!-- Generator: Adobe Illustrator 21.1.0, SVG Export Plug-In  -->
<svg version="1.1"
	 xmlns="http://www.w3.org/2000/svg" xmlns:xlink="http://www.w3.org/1999/xlink" xmlns:a="http://ns.adobe.com/AdobeSVGViewerExtensions/3.0/"
	 x="0px" y="0px" width="308.965px" height="308.353px" viewBox="0 0 308.965 308.353"
	 style="enable-background:new 0 0 308.965 308.353;" xml:space="preserve">
<style type="text/css">
	.st0{fill:none;stroke:#0078BC;stroke-miterlimit:10;}
	.st1{fill:#0078BC;}
	.st2{fill:#CBD2D8;}
	.st3{fill:#B4B9BF;}
	.st4{fill:#878A8E;}
	.st5{opacity:0.5;}
	.st6{fill:#FFBD12;}
	.st7{fill:#D89727;}
	.st8{fill:#FDD655;}
	.st9{fill:#EEA20E;}
</style>
<defs>
</defs>
<path class="st0" d="M306.981,307.853H24.957c-0.817,0-1.479-0.662-1.479-1.479V10.332c0-0.817,0.662-1.479,1.479-1.479h282.025
	c0.817,0,1.479,0.662,1.479,1.479v296.042C308.46,307.191,307.798,307.853,306.981,307.853z"/>
<path class="st1" d="M306.965,2.508H23.978c-1.105,0-2,0.895-2,2v48.107c0,1.105,0.895,2,2,2h282.988c1.105,0,2-0.895,2-2V4.508
	C308.965,3.404,308.07,2.508,306.965,2.508z"/>
<g>
	<g>
		<path class="st2" d="M7.367,24.919c-1.933-4.31-2.072-9.114-0.392-13.528c1.68-4.414,4.979-7.91,9.289-9.843l1.146,2.556
			c-3.627,1.627-6.403,4.569-7.817,8.283c-1.414,3.715-1.297,7.758,0.329,11.385L7.367,24.919z"/>
	</g>
	<g>
		<path class="st3" d="M23.508,35.375c-2.125,0-4.253-0.388-6.298-1.166c-4.414-1.681-7.91-4.979-9.843-9.289l2.556-1.147
			c1.627,3.627,4.569,6.403,8.283,7.817c3.715,1.414,7.758,1.297,11.385-0.329c7.487-3.358,10.846-12.181,7.488-19.668
			C33.721,4.105,24.898,0.746,17.411,4.105l-1.146-2.556c8.894-3.991,19.38,0.001,23.371,8.897
			c3.99,8.897-0.001,19.381-8.898,23.371C28.425,34.854,25.969,35.375,23.508,35.375z"/>
	</g>
	<path class="st4" d="M84.558,118.854c0.418-0.25,0.77-0.545,1.066-0.871l0.006,0.009c1.542-1.618,1.889-4.121,0.685-6.132
		l-0.359-0.598l4.961-2.97l0,0l5.74-3.436c1.203-0.721,1.599-2.294,0.878-3.497L95.7,98.296c-0.721-1.203-2.295-1.598-3.498-0.877
		l-7.49,4.484l-3.091-5.161l5.187-3.105c1.203-0.721,1.599-2.294,0.878-3.497l-2.62-4.374c-0.721-1.203-2.295-1.598-3.498-0.877
		l-2.561,1.533l0,0l-5.836,3.494L58.016,64.618l2.584-1.547l1.354-0.811l0,0l0.925-0.554c7.22-4.322,9.59-13.764,5.267-20.981
		l-4.716-7.874c-4.323-7.218-13.768-9.586-20.988-5.265l-0.777,0.465l0,0l-1.812,1.085l-2.274,1.361l-0.262-0.437
		c-0.136-0.227-0.291-0.435-0.455-0.632c-0.03-0.036-0.058-0.073-0.089-0.108c-0.163-0.186-0.338-0.358-0.522-0.516
		c-0.032-0.026-0.064-0.051-0.095-0.077c-0.398-0.324-0.839-0.582-1.307-0.77c-0.023-0.01-0.047-0.02-0.07-0.029
		c-0.239-0.092-0.484-0.166-0.733-0.222c-0.014-0.003-0.028-0.005-0.042-0.008c-0.522-0.112-1.06-0.142-1.597-0.085
		c-0.002,0-0.004,0-0.007,0c-0.273,0.029-0.544,0.08-0.812,0.154l0,0l0,0c-0.435,0.12-0.861,0.295-1.266,0.537
		c-2.417,1.447-3.203,4.578-1.756,6.994l0.262,0.437l-4.863,2.911c-7.221,4.322-9.591,13.764-5.268,20.982l4.716,7.874
		c4.323,7.217,13.768,9.586,20.988,5.265l4.863-2.912l28.297,47.242C79.009,119.515,82.141,120.301,84.558,118.854z M57.639,52.958
		l-4.954,2.966l0,0l-1.625,0.973l-2.66,1.592l0,0l-9.238,5.53c-2.372,1.42-5.576,0.617-6.996-1.755l-4.716-7.874
		c-1.421-2.371-0.616-5.574,1.756-6.993l4.863-2.911l0,0l1.936-1.159l11.679-6.991c2.372-1.421,5.576-0.617,6.996,1.754l4.716,7.874
		C60.815,48.336,60.011,51.538,57.639,52.958z"/>
	<g class="st5">
		<path class="st4" d="M23.414,67.503l4.783,1.368l14.03-2.553c0.465,0,0.921-0.099,1.355-0.294
			c1.261-0.566,2.108-1.841,2.106-3.173l-0.003-2.736l2.715-1.625l2.66-1.592l1.625-0.972l4.954-2.966
			c1.047-0.627,1.787-1.601,2.166-2.697c0.166,0.976,0.269,1.969,0.27,2.978l0.011,9.595c0,0.187-0.014,0.371-0.02,0.557
			l-2.05,1.227l1.527,2.549c-0.947,3.773-3.11,7.143-6.147,9.589l-4.132-6.899l-4.863,2.911
			C37.182,77.09,27.737,74.721,23.414,67.503z"/>
		<path class="st4" d="M47.759,36.296c-0.025,0.015-0.052,0.026-0.076,0.04l-11.68,6.991l-1.935,1.159l-4.863,2.911
			c-0.957,0.572-1.652,1.437-2.056,2.418l-7.454,0.009c-0.466,0-0.922,0.1-1.355,0.294c-0.8,0.359-1.431,1.004-1.786,1.768
			c-0.025-5.236,2.615-10.367,7.412-13.238l4.862-2.911L28.565,35.3c-1.031-1.721-0.924-3.802,0.094-5.381
			c0.729-0.244,1.489-0.369,2.269-0.369c0.64-0.001,1.287,0.088,1.922,0.262c0.351,0.097,0.701,0.223,1.037,0.374l0.134,0.063
			c0.664,0.316,1.272,0.727,1.76,1.183l0.096,0.086c0.264,0.25,0.51,0.519,0.724,0.794l0.067,0.088
			c0.434,0.572,0.78,1.205,1.045,1.928l0.043,0.12c0.102,0.303,0.185,0.618,0.251,0.956l4.185-0.005
			C44.111,35.397,45.981,35.713,47.759,36.296z"/>
	</g>
	<g>
		<g>
			<g>
				<path class="st6" d="M42.893,118.923c1.466-0.002,2.665-1.203,2.663-2.669l-0.006-5.331c-0.002-1.466-1.203-2.664-2.669-2.662
					l-10.374,0.012c-1.466,0.002-2.665,1.203-2.663,2.668l0.006,5.331c0.002,1.466,1.203,2.664,2.669,2.662L42.893,118.923z"/>
			</g>
			<g>
				<path class="st6" d="M45.717,134.271c1.466-0.002,2.665-1.203,2.663-2.668l-0.004-3.731c-0.002-1.466-1.203-2.664-2.669-2.662
					l-13.04,0.015c-1.466,0.002-2.665,1.203-2.663,2.669l0.004,3.731c0.002,1.466,1.203,2.664,2.669,2.662L45.717,134.271z"/>
			</g>
			<g>
				<rect x="30.18" y="116.891" transform="matrix(1 -0.0011 0.0011 1 -0.1401 0.038)" class="st7" width="6.398" height="12.864"/>
			</g>
		</g>
		<g>
			<g>
				<path class="st6" d="M10.675,61.478l-0.011-9.595c-0.003-2.89,2.436-5.334,5.326-5.337l22.514-0.027
					c2.89-0.003,5.335,2.435,5.338,5.324l0.011,9.595c0.003,2.89-2.436,5.334-5.326,5.337l-22.514,0.027
					C13.122,66.806,10.678,64.368,10.675,61.478L10.675,61.478z M0.011,61.491c0.01,8.796,7.216,15.984,16.014,15.973l22.514-0.027
					c8.798-0.01,15.988-7.215,15.978-16.011l-0.011-9.595c-0.01-8.796-7.216-15.984-16.014-15.973l-22.514,0.027
					C7.18,35.895-0.01,43.1,0,51.895L0.011,61.491L0.011,61.491z"/>
			</g>
		</g>
		<path class="st6" d="M27.27,66.789l11.257-0.013c2.89-0.003,5.329-2.447,5.326-5.337l-0.011-9.595
			c-0.003-2.89-2.448-5.328-5.338-5.324l-11.257,0.013l-0.012-10.661l11.257-0.013c8.798-0.01,16.004,7.178,16.014,15.973
			l0.011,9.595c0.01,8.796-7.18,16.001-15.978,16.011l-11.257,0.013L27.27,66.789z"/>
		<path class="st8" d="M47.041,51.84l0.011,9.595c0.005,4.623-3.897,8.534-8.521,8.539l-9.833,0.012l8.703-3.209l1.126-0.001
			c2.89-0.003,5.329-2.447,5.326-5.337l-0.011-9.595L47.041,51.84z"/>
		<path class="st8" d="M43.842,51.844c-0.003-2.89-2.448-5.328-5.338-5.324l-0.947,0.001l-8.89-3.188l9.833-0.012
			c4.624-0.005,8.536,3.896,8.541,8.519L43.842,51.844z"/>
		<g>
			<path class="st8" d="M32.325,45.782l0.241-10.45c-0.003-2.944-2.393-5.328-5.338-5.324s-5.329,2.393-5.326,5.337l-0.241,10.45
				L32.325,45.782z"/>
		</g>
		<g>
			<rect x="30.971" y="35.863" transform="matrix(1 -0.0012 0.0012 1 -0.0489 0.0407)" class="st9" width="6.579" height="10.661"/>
			<polygon class="st9" points="31.013,77.446 31.001,66.785 37.404,69.976 37.412,77.439 			"/>
		</g>
		<path class="st7" d="M29.849,116.273l-0.006-5.331c-0.002-1.466,1.197-2.667,2.663-2.668l7.254-0.009l0.012,10.661l-7.254,0.009
			C31.052,118.937,29.851,117.739,29.849,116.273z"/>
		<path class="st7" d="M30.008,131.625l-0.004-3.731c-0.002-1.466,1.197-2.667,2.663-2.669l6.046-0.007l0.01,9.062l-6.046,0.007
			C31.211,134.289,30.01,133.091,30.008,131.625z"/>
		<path class="st9" d="M28.652,30.204c2.253,0.621,3.911,2.678,3.914,5.128l0.013,11.195l-3.908,0.005L28.652,30.204z"/>
		<path class="st6" d="M22.015,135.029L21.94,68.928c0-0.365,0.036-0.722,0.106-1.066l9.939-0.012
			c0.056,0.345,0.085,0.701,0.086,1.066l0.075,66.101c0.003,2.944-1.848,5.333-4.793,5.336
			C24.409,140.357,22.019,137.973,22.015,135.029z"/>
		<path class="st9" d="M28.693,66.788l3.797-0.004c0.071,0.345,0.112,0.7,0.112,1.066l0.076,67.167
			c0.003,2.45-1.651,4.511-3.902,5.138L28.693,66.788z"/>
		<path class="st9" d="M7.476,61.482l-0.011-9.595c-0.005-4.623,3.897-8.534,8.521-8.539l21.567-0.025l0.004,3.198L15.99,46.546
			c-2.89,0.003-5.329,2.447-5.326,5.337l0.011,9.595L7.476,61.482z"/>
		<path class="st9" d="M10.675,61.478c0.003,2.89,2.448,5.328,5.338,5.324L37.4,66.777l0.004,3.198l-21.388,0.025
			c-4.624,0.005-8.536-3.896-8.541-8.519L10.675,61.478z"/>
	</g>
	
		<ellipse transform="matrix(0.9124 -0.4093 0.4093 0.9124 -11.6997 13.1498)" class="st7" cx="24.874" cy="33.911" rx="1.796" ry="1.796"/>
	<g>
		<path class="st3" d="M23.491,35.37c-2.004,0-3.981-0.342-5.897-1.021c-0.729-0.259-1.111-1.059-0.852-1.788
			c0.258-0.729,1.058-1.11,1.788-0.852c2.015,0.714,4.108,0.985,6.226,0.806c0.777-0.065,1.449,0.507,1.514,1.278
			c0.065,0.771-0.507,1.449-1.278,1.514C24.491,35.349,23.99,35.37,23.491,35.37z"/>
	</g>
</g>
</svg>