<!-- Generator: Adobe Illustrator 21.1.0, SVG Export Plug-In  -->
<svg version="1.1"
	 xmlns="http://www.w3.org/2000/svg" xmlns:xlink="http://www.w3.org/1999/xlink" xmlns:a="http://ns.adobe.com/AdobeSVGViewerExtensions/3.0/"
	 x="0px" y="0px" width="729px" height="67px" viewBox="0 0 729 67" style="enable-background:new 0 0 729 67;"
	 xml:space="preserve">
<style type="text/css">
	.st0{fill:#FFFFFF;}
	.st1{fill:none;stroke:#FFFFFF;stroke-miterlimit:10;}
</style>
<defs>
</defs>
<path class="st0" d="M726.5,66.5h-179c-1.105,0-2-0.895-2-2v-62c0-1.105,0.895-2,2-2h179c1.105,0,2,0.895,2,2v62
	C728.5,65.605,727.605,66.5,726.5,66.5z"/>
<path class="st1" d="M2.5,66.5h724c1.105,0,2-0.895,2-2v-62c0-1.105-0.895-2-2-2H2.5c-1.105,0-2,0.895-2,2v62
	C0.5,65.605,1.395,66.5,2.5,66.5z"/>
<line class="st1" x1="371" y1="12" x2="371" y2="55.5"/>
<line class="st1" x1="208" y1="12" x2="208" y2="55.5"/>
</svg>