<!-- Generator: Adobe Illustrator 21.1.0, SVG Export Plug-In  -->
<svg version="1.1"
	 xmlns="http://www.w3.org/2000/svg" xmlns:xlink="http://www.w3.org/1999/xlink" xmlns:a="http://ns.adobe.com/AdobeSVGViewerExtensions/3.0/"
	 x="0px" y="0px" width="24.433px" height="41.052px" viewBox="0 0 24.433 41.052"
	 style="enable-background:new 0 0 24.433 41.052;" xml:space="preserve">
<style type="text/css">
	.st0{fill:#CCCCCC;}
	.st1{fill:#FFFFFF;}
</style>
<defs>
</defs>
<g>
	<polygon class="st0" points="11.387,25.214 5.362,19.166 0,19.166 6.024,25.214 	"/>
	<path class="st0" d="M11.919,19.191l-0.121,15.814H5.242l6.024,6.047h6.557l0.121-15.814h5.338c0.302-2.09,0.579-4.168,0.882-6.333
		l-5.793-5.815c0.035-0.062,0.067-0.127,0.106-0.183c0.018-0.026,0.034-0.054,0.053-0.079c0.033-0.042,0.074-0.074,0.109-0.113
		c0.084-0.091,0.173-0.176,0.272-0.248c0.049-0.036,0.102-0.067,0.155-0.098c0.097-0.058,0.198-0.109,0.306-0.153
		c0.059-0.024,0.119-0.048,0.181-0.068c0.119-0.039,0.244-0.069,0.373-0.095c0.058-0.011,0.113-0.026,0.172-0.035
		c0.191-0.029,0.389-0.049,0.597-0.056c0.464-0.016,0.928-0.021,1.392-0.021c0.619,0,1.237,0.008,1.856,0.008
		c0.137,0,0.274,0,0.448,0l0.043-5.636l-6.024-6.047l-0.043,5.636c-0.174,0-0.311,0-0.448,0c-0.619,0-1.237-0.008-1.856-0.008
		c-0.464,0-0.928,0.005-1.392,0.021c-0.208,0.007-0.406,0.027-0.597,0.056c-0.06,0.009-0.115,0.024-0.173,0.035
		c-0.129,0.026-0.254,0.056-0.373,0.094c-0.062,0.02-0.122,0.044-0.181,0.068c-0.108,0.044-0.209,0.095-0.306,0.153
		c-0.053,0.031-0.106,0.062-0.155,0.098c-0.099,0.072-0.188,0.157-0.273,0.248c-0.026,0.029-0.061,0.047-0.086,0.078
		c-0.009,0.01-0.015,0.023-0.023,0.034c-0.019,0.025-0.036,0.053-0.054,0.079c-0.039,0.055-0.08,0.107-0.114,0.168
		c-0.025,0.045-0.045,0.096-0.067,0.144c-0.014,0.03-0.029,0.059-0.042,0.091c-0.009,0.022-0.021,0.042-0.03,0.065
		c-0.043,0.115-0.08,0.238-0.11,0.37c-0.002,0.009-0.002,0.021-0.004,0.03c-0.011,0.049-0.015,0.107-0.023,0.159
		c-0.019,0.111-0.041,0.219-0.05,0.342c-0.004,0.053-0.007,0.107-0.01,0.163c-0.047,1.344-0.082,4.311-0.084,4.467l5.459,5.48
		c-0.04,0.284-0.079,0.569-0.12,0.853H11.919z"/>
	<g>
		<path class="st1" d="M13.807,0c0.936,0,1.878,0.051,2.812,0.093c0.609,0.025,1.218,0.112,1.79,0.174l-0.043,5.636
			c-0.174,0-0.311,0-0.448,0c-0.619,0-1.237-0.008-1.856-0.008c-0.464,0-0.928,0.004-1.392,0.02c-1.493,0.05-2.593,0.61-2.669,2.476
			c-0.048,1.344-0.082,4.311-0.084,4.467c0.078,0,1.554,0.005,3.039,0.005c0.743,0,1.469-0.001,1.975-0.005c0.386,0,0.771,0,1.207,0
			c-0.303,2.165-0.58,4.243-0.882,6.333h-5.338l-0.121,15.814H5.242l0.121-15.839H0l0.048-6.296h5.387l0.004-0.473
			c0.01-1.269-0.005-2.538,0.042-3.807c0.019-0.796,0.062-1.617,0.205-2.414c0.363-1.929,1.259-3.546,2.873-4.703
			c1.414-1.008,3.022-1.431,4.727-1.468C13.459,0.002,13.633,0,13.807,0z"/>
	</g>
</g>
</svg>